<svg width="190" height="190" viewBox="0 0 190 190" fill="none" xmlns="http://www.w3.org/2000/svg">
<circle cx="95" cy="95" r="95" fill="url(#paint0_linear_618_12978)"/>
<g clip-path="url(#clip0_618_12978)">
<path d="M87 95C95.84 95 103 87.84 103 79C103 70.16 95.84 63 87 63C78.16 63 71 70.16 71 79C71 87.84 78.16 95 87 95ZM87 71C91.4 71 95 74.6 95 79C95 83.4 91.4 87 87 87C82.6 87 79 83.4 79 79C79 74.6 82.6 71 87 71Z" fill="white"/>
<path d="M63 119C63.88 116.12 76.24 111 87 111C87 108.2 87.52 105.52 88.4 103.04C77.48 102.64 55 108.08 55 119V127H93.16C91.08 124.68 89.44 122 88.4 119H63Z" fill="white"/>
<path d="M124.72 119.08C126.16 116.72 127 113.96 127 111C127 102.16 119.84 95 111 95C102.16 95 95 102.16 95 111C95 119.84 102.16 127 111 127C113.96 127 116.72 126.12 119.08 124.72C122.8 128.44 125.56 131.2 129.36 135L135 129.36C129 123.36 131.84 126.16 124.72 119.08ZM111 119C106.6 119 103 115.4 103 111C103 106.6 106.6 103 111 103C115.4 103 119 106.6 119 111C119 115.4 115.4 119 111 119Z" fill="white"/>
</g>
<defs>
<linearGradient id="paint0_linear_618_12978" x1="95" y1="0" x2="95" y2="190" gradientUnits="userSpaceOnUse">
<stop offset="0.210069" stop-color="#00325F"/>
<stop offset="1" stop-color="#007FF1"/>
</linearGradient>
<clipPath id="clip0_618_12978">
<rect width="96" height="96" fill="white" transform="translate(47 47)"/>
</clipPath>
</defs>
</svg>
