<svg width="248" height="248" viewBox="0 0 248 248" fill="none" xmlns="http://www.w3.org/2000/svg">
<path d="M23.5401 196.725C-32.1386 119.209 16.4705 10.4361 111.497 0.422857C114.807 0.075174 119.544 -0.0581037 125.706 0.0230223C142.219 0.240324 158.306 3.32601 173.22 10.0102C201.962 22.8803 223.058 43.55 236.507 72.0195C237.637 74.4069 238.724 76.8233 239.768 79.2687C239.884 79.5237 240.075 79.6917 240.342 79.7728C240.968 79.9525 241.556 80.1089 242.107 80.2422C246.924 81.3895 248.788 84.2666 247.698 88.8734C246.638 93.3672 239.777 95.4968 236.377 92.2112C233.02 88.9604 233.211 83.9798 237.185 81.1114C237.287 81.0372 237.362 80.931 237.396 80.8097C237.431 80.6884 237.424 80.559 237.377 80.4421C220.959 38.3203 183.498 8.48041 138.211 3.27386C50.262 -6.85241 -18.2516 77.1826 8.59214 161.426C22.9401 206.46 63.4795 239.498 110.628 244.818C148.741 249.121 186.654 234.831 212.855 206.79C213.069 206.564 213.101 206.312 212.95 206.034C207.402 195.664 220.742 188.598 226.142 197.229C230.403 204.052 222.933 211.493 215.629 208.303C215.356 208.181 215.118 208.23 214.916 208.45C193.489 231.354 163.75 246.122 132.306 247.791C126.781 248.086 121.086 248.069 115.219 247.739C78.7579 245.67 44.7142 226.2 23.5401 196.725ZM225.368 201.297C225.368 199.706 224.736 198.181 223.61 197.056C222.485 195.931 220.959 195.299 219.368 195.299C218.58 195.299 217.8 195.454 217.072 195.756C216.344 196.057 215.682 196.499 215.125 197.056C214.568 197.613 214.126 198.274 213.824 199.002C213.523 199.729 213.368 200.509 213.368 201.297C213.368 202.084 213.523 202.864 213.824 203.592C214.126 204.32 214.568 204.981 215.125 205.538C215.682 206.095 216.344 206.536 217.072 206.838C217.8 207.139 218.58 207.294 219.368 207.294C220.959 207.294 222.485 206.662 223.61 205.538C224.736 204.413 225.368 202.887 225.368 201.297Z" fill="white"/>
<path d="M28.1405 79.909C56.9822 17.1791 137.136 -1.30717 190.682 42.1634C223.913 69.137 237.535 114.467 224.861 155.374C209.553 204.778 159.267 237.034 107.607 228.512C107.318 228.465 107.077 228.558 106.886 228.789C106.052 229.797 105.243 230.805 104.052 231.352C98.9758 233.672 94.1428 228.824 96.1334 223.647C98.1848 218.313 106.321 219.347 107.295 225.063C107.343 225.352 107.483 225.618 107.694 225.822C107.906 226.025 108.177 226.155 108.468 226.192C134.974 229.574 158.908 224.307 180.268 210.39C220.619 184.103 236.674 133.57 220.723 88.9871C201.687 35.7262 142.56 8.08364 89.2054 27.2128C37.2763 45.8293 9.72969 101.653 25.5848 154.193C25.6463 154.401 25.7752 154.583 25.9514 154.711C26.1276 154.838 26.3411 154.903 26.5584 154.897C31.7218 154.749 35.1814 160.665 32.5389 164.843C26.6453 174.139 14.2063 162.672 22.8641 156C22.972 155.916 23.0527 155.801 23.096 155.672C23.1393 155.542 23.1433 155.402 23.1075 155.27C15.7884 129.252 16.8576 104.45 28.1405 79.909ZM31.7652 161.525C31.7652 160.857 31.6337 160.197 31.3781 159.58C31.1226 158.963 30.748 158.403 30.2758 157.931C29.8036 157.459 29.243 157.085 28.6261 156.83C28.0091 156.574 27.3479 156.443 26.6801 156.443C25.3314 156.443 24.038 156.978 23.0844 157.931C22.1307 158.884 21.595 160.177 21.595 161.525C21.595 162.873 22.1307 164.165 23.0844 165.118C24.038 166.071 25.3314 166.607 26.6801 166.607C27.3479 166.607 28.0091 166.475 28.6261 166.22C29.243 165.965 29.8036 165.59 30.2758 165.118C30.748 164.646 31.1226 164.086 31.3781 163.47C31.6337 162.853 31.7652 162.192 31.7652 161.525Z" fill="white"/>
<path d="M59.3642 59.1212C64.5372 59.3651 65.5892 66.4373 60.964 68.6408C59.7033 69.2418 58.3992 69.0676 56.9995 68.8847C56.7328 68.8498 56.5155 68.9369 56.3474 69.146C32.4039 99.4381 30.5608 140.251 51.7135 172.608C72.8401 204.912 114.415 219.709 150.983 207.507C188.324 195.052 212.832 160.432 211.485 120.838C210.128 81.052 182.516 47.9816 143.853 38.6971C143.558 38.6274 143.326 38.7174 143.158 38.9671C140.776 42.4335 135.907 43.2087 133.577 39.6116C128.508 31.7904 141.749 25.7982 143.94 35.5965C144.01 35.8926 144.19 36.0755 144.479 36.1452C195.609 47.9206 225.595 100.631 210.285 150.677C192.505 208.822 122.953 232.887 73.0227 198.292C30.1347 168.584 21.8058 108.252 54.4173 67.3169C54.6086 67.0847 54.6607 66.8234 54.5738 66.5331C53.4262 62.5267 54.6955 58.8948 59.3642 59.1212ZM142.541 36.1975C142.541 35.6279 142.429 35.0638 142.211 34.5376C141.993 34.0114 141.674 33.5332 141.272 33.1305C140.87 32.7277 140.393 32.4082 139.868 32.1902C139.342 31.9723 138.779 31.8601 138.211 31.8601C137.063 31.8601 135.961 32.317 135.149 33.1305C134.337 33.9439 133.881 35.0471 133.881 36.1975C133.881 36.767 133.993 37.3311 134.211 37.8573C134.428 38.3835 134.747 38.8617 135.149 39.2645C135.551 39.6672 136.029 39.9867 136.554 40.2047C137.079 40.4227 137.642 40.5349 138.211 40.5349C138.779 40.5349 139.342 40.4227 139.868 40.2047C140.393 39.9867 140.87 39.6672 141.272 39.2645C141.674 38.8617 141.993 38.3835 142.211 37.8573C142.429 37.3311 142.541 36.767 142.541 36.1975Z" fill="white"/>
<path d="M119.599 67.4143L49.7066 105.537L75.1219 119.389V157.512L119.599 181.783L164.076 157.512V119.389L176.783 112.463V156.368H189.491V105.537L119.599 67.4143ZM162.932 105.537L119.599 129.174L76.2656 105.537L119.599 81.901L162.932 105.537ZM151.368 149.951L119.599 167.297L87.8296 149.951V126.314L119.599 143.66L151.368 126.314V149.951Z" fill="white"/>
</svg>
