<svg width="143" height="38" viewBox="0 0 143 38" fill="none" xmlns="http://www.w3.org/2000/svg">
<path d="M48.5945 19.7144H45.7117L45.696 18.5035H48.3132C48.7455 18.5035 49.1231 18.4306 49.446 18.2847C49.769 18.1389 50.019 17.9306 50.196 17.6597C50.3783 17.3837 50.4695 17.0556 50.4695 16.6754C50.4695 16.2587 50.3888 15.9201 50.2273 15.6597C50.071 15.3941 49.8289 15.2014 49.5007 15.0816C49.1778 14.9566 48.7664 14.8941 48.2664 14.8941H46.0476V25.0347H44.5398V13.6597H48.2664C48.8497 13.6597 49.3705 13.7196 49.8289 13.8394C50.2872 13.954 50.6752 14.1363 50.9929 14.3863C51.3158 14.6311 51.5606 14.9436 51.7273 15.3238C51.894 15.704 51.9773 16.1597 51.9773 16.691C51.9773 17.1597 51.8575 17.5842 51.6179 17.9644C51.3783 18.3394 51.045 18.6467 50.6179 18.8863C50.196 19.1259 49.7013 19.2795 49.1335 19.3472L48.5945 19.7144ZM48.5242 25.0347H45.1179L45.9695 23.8082H48.5242C49.0033 23.8082 49.4096 23.7248 49.7429 23.5582C50.0815 23.3915 50.3393 23.1571 50.5164 22.855C50.6934 22.5477 50.782 22.1858 50.782 21.7691C50.782 21.3472 50.7065 20.9826 50.5554 20.6754C50.4044 20.3681 50.1674 20.1311 49.8445 19.9644C49.5216 19.7977 49.1049 19.7144 48.5945 19.7144H46.446L46.4617 18.5035H49.3992L49.7195 18.941C50.2664 18.9879 50.7299 19.1441 51.1101 19.4097C51.4903 19.6701 51.7794 20.0035 51.9773 20.4097C52.1804 20.816 52.282 21.2639 52.282 21.7535C52.282 22.4618 52.1257 23.0608 51.8132 23.5504C51.5059 24.0347 51.071 24.4045 50.5085 24.6597C49.946 24.9097 49.2846 25.0347 48.5242 25.0347ZM56.6648 24.1597L59.0164 16.5816H60.5632L57.1726 26.3394C57.0945 26.5477 56.9903 26.7717 56.8601 27.0113C56.7351 27.2561 56.5736 27.4879 56.3757 27.7066C56.1778 27.9254 55.9382 28.1024 55.657 28.2379C55.3809 28.3785 55.0502 28.4488 54.6648 28.4488C54.5502 28.4488 54.4044 28.4332 54.2273 28.4019C54.0502 28.3707 53.9252 28.3446 53.8523 28.3238L53.8445 27.1519C53.8861 27.1571 53.9513 27.1623 54.0398 27.1675C54.1335 27.178 54.1986 27.1832 54.2351 27.1832C54.5632 27.1832 54.8419 27.1389 55.071 27.0504C55.3002 26.967 55.4929 26.8238 55.6492 26.6207C55.8106 26.4227 55.9486 26.1493 56.0632 25.8004L56.6648 24.1597ZM54.9382 16.5816L57.1335 23.1441L57.5085 24.6675L56.4695 25.1988L53.3601 16.5816H54.9382ZM65.407 16.5816V17.691H60.8367V16.5816H65.407ZM62.3835 14.5269H63.8289V22.941C63.8289 23.2274 63.8731 23.4436 63.9617 23.5894C64.0502 23.7352 64.1648 23.8316 64.3054 23.8785C64.446 23.9254 64.5971 23.9488 64.7585 23.9488C64.8783 23.9488 65.0033 23.9384 65.1335 23.9175C65.269 23.8915 65.3705 23.8707 65.4382 23.855L65.446 25.0347C65.3315 25.0712 65.1804 25.105 64.9929 25.1363C64.8106 25.1727 64.5893 25.191 64.3289 25.191C63.9747 25.191 63.6492 25.1207 63.3523 24.98C63.0554 24.8394 62.8184 24.605 62.6414 24.2769C62.4695 23.9436 62.3835 23.4957 62.3835 22.9332V14.5269ZM70.6101 25.191C70.0216 25.191 69.4877 25.092 69.0085 24.8941C68.5346 24.691 68.1257 24.4071 67.782 24.0425C67.4434 23.678 67.183 23.2457 67.0007 22.7457C66.8184 22.2457 66.7273 21.6988 66.7273 21.105V20.7769C66.7273 20.0894 66.8289 19.4774 67.032 18.941C67.2351 18.3993 67.5111 17.941 67.8601 17.566C68.2091 17.191 68.6049 16.9071 69.0476 16.7144C69.4903 16.5217 69.9486 16.4254 70.4226 16.4254C71.0268 16.4254 71.5476 16.5295 71.9851 16.7379C72.4278 16.9462 72.7898 17.2379 73.071 17.6129C73.3523 17.9826 73.5606 18.4201 73.696 18.9254C73.8315 19.4254 73.8992 19.9722 73.8992 20.566V21.2144H67.5867V20.0347H72.4539V19.9254C72.433 19.5504 72.3549 19.1858 72.2195 18.8316C72.0893 18.4774 71.8809 18.1858 71.5945 17.9566C71.308 17.7274 70.9174 17.6129 70.4226 17.6129C70.0945 17.6129 69.7924 17.6832 69.5164 17.8238C69.2403 17.9592 69.0033 18.1623 68.8054 18.4332C68.6075 18.704 68.4539 19.0347 68.3445 19.4254C68.2351 19.816 68.1804 20.2665 68.1804 20.7769V21.105C68.1804 21.5061 68.2351 21.8837 68.3445 22.2379C68.4591 22.5868 68.6231 22.8941 68.8367 23.1597C69.0554 23.4254 69.3184 23.6337 69.6257 23.7847C69.9382 23.9358 70.2924 24.0113 70.6882 24.0113C71.1986 24.0113 71.6309 23.9071 71.9851 23.6988C72.3393 23.4905 72.6492 23.2118 72.9148 22.8629L73.7898 23.5582C73.6075 23.8342 73.3757 24.0972 73.0945 24.3472C72.8132 24.5972 72.4669 24.8004 72.0554 24.9566C71.6492 25.1129 71.1674 25.191 70.6101 25.191ZM80.5085 22.7925C80.5085 22.5842 80.4617 22.3915 80.3679 22.2144C80.2794 22.0321 80.0945 21.8681 79.8132 21.7222C79.5372 21.5712 79.1205 21.441 78.5632 21.3316C78.0945 21.2326 77.67 21.1155 77.2898 20.98C76.9148 20.8446 76.5945 20.6806 76.3289 20.4879C76.0684 20.2951 75.8679 20.0686 75.7273 19.8082C75.5867 19.5477 75.5164 19.2431 75.5164 18.8941C75.5164 18.5608 75.5893 18.2457 75.7351 17.9488C75.8861 17.6519 76.0971 17.3889 76.3679 17.1597C76.644 16.9306 76.9747 16.7509 77.3601 16.6207C77.7455 16.4905 78.1752 16.4254 78.6492 16.4254C79.3263 16.4254 79.9044 16.5451 80.3835 16.7847C80.8627 17.0243 81.2299 17.3446 81.4851 17.7457C81.7403 18.1415 81.8679 18.5816 81.8679 19.066H80.4226C80.4226 18.8316 80.3523 18.605 80.2117 18.3863C80.0763 18.1623 79.8757 17.9774 79.6101 17.8316C79.3497 17.6858 79.0294 17.6129 78.6492 17.6129C78.2481 17.6129 77.9226 17.6754 77.6726 17.8004C77.4278 17.9201 77.2481 18.0738 77.1335 18.2613C77.0242 18.4488 76.9695 18.6467 76.9695 18.855C76.9695 19.0113 76.9955 19.1519 77.0476 19.2769C77.1049 19.3967 77.2039 19.5087 77.3445 19.6129C77.4851 19.7118 77.683 19.8056 77.9382 19.8941C78.1934 19.9826 78.519 20.0712 78.9148 20.1597C79.6075 20.316 80.1778 20.5035 80.6257 20.7222C81.0736 20.941 81.407 21.2092 81.6257 21.5269C81.8445 21.8446 81.9539 22.23 81.9539 22.6832C81.9539 23.053 81.8757 23.3915 81.7195 23.6988C81.5684 24.0061 81.3471 24.2717 81.0554 24.4957C80.769 24.7144 80.4252 24.8863 80.0242 25.0113C79.6283 25.1311 79.183 25.191 78.6882 25.191C77.9434 25.191 77.3132 25.0582 76.7976 24.7925C76.282 24.5269 75.8914 24.1832 75.6257 23.7613C75.3601 23.3394 75.2273 22.8941 75.2273 22.4254H76.6804C76.7013 22.8212 76.8158 23.1363 77.0242 23.3707C77.2325 23.5998 77.4877 23.7639 77.7898 23.8629C78.0919 23.9566 78.3914 24.0035 78.6882 24.0035C79.0841 24.0035 79.4148 23.9514 79.6804 23.8472C79.9513 23.7431 80.157 23.5998 80.2976 23.4175C80.4382 23.2352 80.5085 23.0269 80.5085 22.7925ZM88.1257 19.7144H85.2429L85.2273 18.5035H87.8445C88.2768 18.5035 88.6544 18.4306 88.9773 18.2847C89.3002 18.1389 89.5502 17.9306 89.7273 17.6597C89.9096 17.3837 90.0007 17.0556 90.0007 16.6754C90.0007 16.2587 89.92 15.9201 89.7585 15.6597C89.6023 15.3941 89.3601 15.2014 89.032 15.0816C88.7091 14.9566 88.2976 14.8941 87.7976 14.8941H85.5789V25.0347H84.071V13.6597H87.7976C88.3809 13.6597 88.9018 13.7196 89.3601 13.8394C89.8184 13.954 90.2065 14.1363 90.5242 14.3863C90.8471 14.6311 91.0919 14.9436 91.2585 15.3238C91.4252 15.704 91.5085 16.1597 91.5085 16.691C91.5085 17.1597 91.3888 17.5842 91.1492 17.9644C90.9096 18.3394 90.5763 18.6467 90.1492 18.8863C89.7273 19.1259 89.2325 19.2795 88.6648 19.3472L88.1257 19.7144ZM88.0554 25.0347H84.6492L85.5007 23.8082H88.0554C88.5346 23.8082 88.9408 23.7248 89.2742 23.5582C89.6127 23.3915 89.8705 23.1571 90.0476 22.855C90.2247 22.5477 90.3132 22.1858 90.3132 21.7691C90.3132 21.3472 90.2377 20.9826 90.0867 20.6754C89.9356 20.3681 89.6986 20.1311 89.3757 19.9644C89.0528 19.7977 88.6361 19.7144 88.1257 19.7144H85.9773L85.9929 18.5035H88.9304L89.2507 18.941C89.7976 18.9879 90.2611 19.1441 90.6414 19.4097C91.0216 19.6701 91.3106 20.0035 91.5085 20.4097C91.7117 20.816 91.8132 21.2639 91.8132 21.7535C91.8132 22.4618 91.657 23.0608 91.3445 23.5504C91.0372 24.0347 90.6023 24.4045 90.0398 24.6597C89.4773 24.9097 88.8158 25.0347 88.0554 25.0347ZM95.2664 17.9097V25.0347H93.821V16.5816H95.2273L95.2664 17.9097ZM97.907 16.5347L97.8992 17.8785C97.7794 17.8524 97.6648 17.8368 97.5554 17.8316C97.4513 17.8212 97.3315 17.816 97.196 17.816C96.8627 17.816 96.5684 17.8681 96.3132 17.9722C96.058 18.0764 95.8419 18.2222 95.6648 18.4097C95.4877 18.5972 95.3471 18.8212 95.2429 19.0816C95.144 19.3368 95.0789 19.6181 95.0476 19.9254L94.6414 20.1597C94.6414 19.6493 94.6908 19.1701 94.7898 18.7222C94.894 18.2743 95.0528 17.8785 95.2664 17.5347C95.4799 17.1858 95.7507 16.9149 96.0789 16.7222C96.4122 16.5243 96.808 16.4254 97.2664 16.4254C97.3705 16.4254 97.4903 16.4384 97.6257 16.4644C97.7611 16.4852 97.8549 16.5087 97.907 16.5347ZM103.915 23.5894V19.2379C103.915 18.9045 103.847 18.6155 103.712 18.3707C103.581 18.1207 103.384 17.928 103.118 17.7925C102.852 17.6571 102.524 17.5894 102.134 17.5894C101.769 17.5894 101.449 17.6519 101.173 17.7769C100.902 17.9019 100.688 18.066 100.532 18.2691C100.381 18.4722 100.305 18.691 100.305 18.9254H98.8601C98.8601 18.6233 98.9382 18.3238 99.0945 18.0269C99.2507 17.73 99.4747 17.4618 99.7664 17.2222C100.063 16.9774 100.417 16.7847 100.829 16.6441C101.246 16.4983 101.709 16.4254 102.219 16.4254C102.834 16.4254 103.376 16.5295 103.844 16.7379C104.318 16.9462 104.688 17.2613 104.954 17.6832C105.225 18.0998 105.36 18.6233 105.36 19.2535V23.191C105.36 23.4722 105.384 23.7717 105.43 24.0894C105.483 24.4071 105.558 24.6806 105.657 24.9097V25.0347H104.149C104.076 24.8681 104.019 24.6467 103.977 24.3707C103.936 24.0894 103.915 23.829 103.915 23.5894ZM104.165 19.9097L104.18 20.9254H102.719C102.308 20.9254 101.941 20.9592 101.618 21.0269C101.295 21.0894 101.024 21.1858 100.805 21.316C100.587 21.4462 100.42 21.6102 100.305 21.8082C100.191 22.0009 100.134 22.2274 100.134 22.4879C100.134 22.7535 100.193 22.9957 100.313 23.2144C100.433 23.4332 100.613 23.6076 100.852 23.7379C101.097 23.8629 101.397 23.9254 101.751 23.9254C102.193 23.9254 102.584 23.8316 102.923 23.6441C103.261 23.4566 103.529 23.2274 103.727 22.9566C103.93 22.6858 104.04 22.4227 104.055 22.1675L104.673 22.8629C104.636 23.0816 104.537 23.3238 104.376 23.5894C104.214 23.855 103.998 24.1102 103.727 24.355C103.462 24.5946 103.144 24.7951 102.774 24.9566C102.41 25.1129 101.998 25.191 101.54 25.191C100.967 25.191 100.464 25.079 100.032 24.855C99.6049 24.6311 99.2716 24.3316 99.032 23.9566C98.7976 23.5764 98.6804 23.1519 98.6804 22.6832C98.6804 22.23 98.769 21.8316 98.946 21.4879C99.1231 21.1389 99.3783 20.8498 99.7117 20.6207C100.045 20.3863 100.446 20.2092 100.915 20.0894C101.384 19.9696 101.907 19.9097 102.485 19.9097H104.165ZM109.204 16.5816V25.0347H107.751V16.5816H109.204ZM107.641 14.3394C107.641 14.105 107.712 13.9071 107.852 13.7457C107.998 13.5842 108.212 13.5035 108.493 13.5035C108.769 13.5035 108.98 13.5842 109.126 13.7457C109.277 13.9071 109.352 14.105 109.352 14.3394C109.352 14.5634 109.277 14.7561 109.126 14.9175C108.98 15.0738 108.769 15.1519 108.493 15.1519C108.212 15.1519 107.998 15.0738 107.852 14.9175C107.712 14.7561 107.641 14.5634 107.641 14.3394ZM112.969 18.3863V25.0347H111.524V16.5816H112.891L112.969 18.3863ZM112.626 20.4879L112.024 20.4644C112.029 19.8863 112.115 19.3524 112.282 18.8629C112.449 18.3681 112.683 17.9384 112.985 17.5738C113.287 17.2092 113.647 16.928 114.063 16.73C114.485 16.5269 114.951 16.4254 115.462 16.4254C115.878 16.4254 116.253 16.4826 116.587 16.5972C116.92 16.7066 117.204 16.8837 117.438 17.1285C117.678 17.3733 117.86 17.691 117.985 18.0816C118.11 18.467 118.173 18.9384 118.173 19.4957V25.0347H116.719V19.48C116.719 19.0373 116.654 18.6832 116.524 18.4175C116.394 18.1467 116.204 17.9514 115.954 17.8316C115.704 17.7066 115.397 17.6441 115.032 17.6441C114.673 17.6441 114.344 17.7196 114.048 17.8707C113.756 18.0217 113.503 18.23 113.29 18.4957C113.081 18.7613 112.917 19.066 112.798 19.4097C112.683 19.7483 112.626 20.1076 112.626 20.4879ZM125.29 22.7925C125.29 22.5842 125.243 22.3915 125.149 22.2144C125.061 22.0321 124.876 21.8681 124.594 21.7222C124.318 21.5712 123.902 21.441 123.344 21.3316C122.876 21.2326 122.451 21.1155 122.071 20.98C121.696 20.8446 121.376 20.6806 121.11 20.4879C120.85 20.2951 120.649 20.0686 120.509 19.8082C120.368 19.5477 120.298 19.2431 120.298 18.8941C120.298 18.5608 120.371 18.2457 120.516 17.9488C120.667 17.6519 120.878 17.3889 121.149 17.1597C121.425 16.9306 121.756 16.7509 122.141 16.6207C122.527 16.4905 122.956 16.4254 123.43 16.4254C124.108 16.4254 124.686 16.5451 125.165 16.7847C125.644 17.0243 126.011 17.3446 126.266 17.7457C126.522 18.1415 126.649 18.5816 126.649 19.066H125.204C125.204 18.8316 125.134 18.605 124.993 18.3863C124.858 18.1623 124.657 17.9774 124.391 17.8316C124.131 17.6858 123.811 17.6129 123.43 17.6129C123.029 17.6129 122.704 17.6754 122.454 17.8004C122.209 17.9201 122.029 18.0738 121.915 18.2613C121.805 18.4488 121.751 18.6467 121.751 18.855C121.751 19.0113 121.777 19.1519 121.829 19.2769C121.886 19.3967 121.985 19.5087 122.126 19.6129C122.266 19.7118 122.464 19.8056 122.719 19.8941C122.975 19.9826 123.3 20.0712 123.696 20.1597C124.389 20.316 124.959 20.5035 125.407 20.7222C125.855 20.941 126.188 21.2092 126.407 21.5269C126.626 21.8446 126.735 22.23 126.735 22.6832C126.735 23.053 126.657 23.3915 126.501 23.6988C126.35 24.0061 126.128 24.2717 125.837 24.4957C125.55 24.7144 125.206 24.8863 124.805 25.0113C124.41 25.1311 123.964 25.191 123.469 25.191C122.725 25.191 122.094 25.0582 121.579 24.7925C121.063 24.5269 120.673 24.1832 120.407 23.7613C120.141 23.3394 120.009 22.8941 120.009 22.4254H121.462C121.483 22.8212 121.597 23.1363 121.805 23.3707C122.014 23.5998 122.269 23.7639 122.571 23.8629C122.873 23.9566 123.173 24.0035 123.469 24.0035C123.865 24.0035 124.196 23.9514 124.462 23.8472C124.733 23.7431 124.938 23.5998 125.079 23.4175C125.219 23.2352 125.29 23.0269 125.29 22.7925Z" fill="white"/>
<path d="M38.13 12.0384C39.1753 12.0903 39.7152 13.1495 38.9218 13.8601C38.0048 14.6819 36.5354 13.55 37.3163 12.4523C37.3758 12.3692 37.4822 12.301 37.5667 12.2164C37.6021 12.1808 37.611 12.1403 37.5933 12.0948C34.872 5.38814 28.4671 0.973423 20.9762 0.42455C10.0723 -0.37354 0.561169 8.00047 0.410943 18.3193C0.263848 28.4868 8.72811 36.8133 19.4896 36.932C24.9337 36.9928 29.9944 34.8567 33.7312 31.1169C33.7657 31.0823 33.7709 31.0437 33.7469 31.0012C33.3974 30.39 33.4344 29.8837 33.858 29.4822C35.0942 28.3102 36.8281 30.0859 35.6137 31.1599C35.2121 31.5159 34.7364 31.5733 34.1866 31.332C34.1397 31.3122 34.099 31.3196 34.0646 31.3543C30.3825 35.0732 25.4485 37.2109 20.0811 37.3236C13.4899 37.4616 7.157 34.4502 3.44362 29.2329C-2.85802 20.3827 -0.269766 8.54341 9.23668 2.80695C15.0923 -0.725115 22.8196 -0.92983 28.9678 2.22693C33.1272 4.36308 36.2538 7.77944 38.0127 11.9583C38.0226 11.9809 38.0388 12.0004 38.0596 12.0146C38.0803 12.0288 38.1048 12.037 38.13 12.0384ZM35.7139 30.2906C35.7139 30.0514 35.6137 29.822 35.4352 29.6529C35.2568 29.4837 35.0148 29.3887 34.7625 29.3887C34.5101 29.3887 34.2681 29.4837 34.0897 29.6529C33.9113 29.822 33.811 30.0514 33.811 30.2906C33.811 30.5298 33.9113 30.7592 34.0897 30.9284C34.2681 31.0975 34.5101 31.1926 34.7625 31.1926C35.0148 31.1926 35.2568 31.0975 35.4352 30.9284C35.6137 30.7592 35.7139 30.5298 35.7139 30.2906Z" fill="#7100FE"/>
<path d="M17.1064 33.9729C24.0308 34.9965 30.8285 31.7907 34.0709 25.8911C39.2677 16.4357 33.1883 4.86633 21.9543 3.30872C15.9296 2.47354 9.72655 5.01912 6.28858 9.73943C3.36701 13.7506 2.56581 18.557 4.03677 23.2105C4.05137 23.256 4.08371 23.2807 4.13379 23.2847C5.30273 23.3589 5.74715 24.7548 4.65645 25.2102C3.62834 25.6389 2.70352 24.5278 3.38579 23.663C3.42961 23.6081 3.54854 23.525 3.61426 23.4464C3.6466 23.4068 3.65495 23.3633 3.6393 23.3159C0.417278 13.3679 7.91915 3.41108 18.7463 2.78358C22.8791 2.54326 26.9743 3.87836 30.1384 6.28302C38.4587 12.6069 38.4931 24.9254 29.9475 31.1573C26.1491 33.9274 21.8489 35.0078 17.0469 34.3986C17.0215 34.3954 16.9955 34.3975 16.9709 34.4049C16.9463 34.4124 16.9236 34.4249 16.9045 34.4417C16.6995 34.6241 16.5743 34.8451 16.2347 34.8867C14.8326 35.0588 14.7873 32.9983 16.1972 33.1407C16.6218 33.1842 16.892 33.4324 17.0078 33.8854C17.0203 33.9358 17.0532 33.965 17.1064 33.9729ZM5.01323 24.2979C5.01323 24.0945 4.928 23.8994 4.77627 23.7556C4.62455 23.6118 4.41877 23.531 4.20421 23.531C3.98964 23.531 3.78386 23.6118 3.63214 23.7556C3.48042 23.8994 3.39518 24.0945 3.39518 24.2979C3.39518 24.5013 3.48042 24.6964 3.63214 24.8402C3.78386 24.984 3.98964 25.0648 4.20421 25.0648C4.41877 25.0648 4.62455 24.984 4.77627 24.8402C4.928 24.6964 5.01323 24.5013 5.01323 24.2979Z" fill="#7100FE"/>
<path d="M22.6265 5.90125C22.0021 6.70972 20.7456 6.26617 20.9615 5.25447C21.118 4.51868 22.2024 4.40149 22.6171 5.06607C22.6703 5.15063 22.6797 5.2693 22.7282 5.37314C22.7385 5.39359 22.7535 5.41173 22.7722 5.42632C22.7908 5.44091 22.8126 5.45161 22.8362 5.4577C27.4327 6.56237 30.7001 9.10646 32.6384 13.09C33.5919 15.0491 34.0056 17.1294 33.8793 19.3308C33.4959 26.0152 28.1629 31.3749 21.2119 32.1299C16.0714 32.6892 10.8808 30.4492 7.97328 26.4573C4.27711 21.3839 4.60104 14.9443 8.5335 10.1365C8.55174 10.1139 8.56288 10.0868 8.56565 10.0585C8.56841 10.0302 8.56269 10.0017 8.54914 9.97625C8.08751 9.11883 9.51622 8.40826 9.97159 9.33392C10.2673 9.93323 9.74156 10.4777 9.04207 10.3827C8.94297 10.3689 8.86264 10.399 8.80108 10.4732C4.95156 15.1075 4.77943 21.4388 8.34415 26.2466C12.4691 31.811 20.4827 33.4561 26.6341 30.0042C37.3595 23.9844 34.9653 8.60704 22.7517 5.85823C22.6995 5.84636 22.6578 5.8607 22.6265 5.90125ZM22.5232 5.47402C22.5232 5.3885 22.5055 5.30381 22.4709 5.2248C22.4364 5.14579 22.3858 5.074 22.322 5.01353C22.2582 4.95306 22.1825 4.90509 22.0992 4.87236C22.0158 4.83963 21.9265 4.82279 21.8363 4.82279C21.6541 4.82279 21.4793 4.8914 21.3505 5.01353C21.2217 5.13566 21.1493 5.3013 21.1493 5.47402C21.1493 5.64673 21.2217 5.81238 21.3505 5.93451C21.4793 6.05663 21.6541 6.12525 21.8363 6.12525C22.0185 6.12525 22.1932 6.05663 22.322 5.93451C22.4509 5.81238 22.5232 5.64673 22.5232 5.47402Z" fill="#7100FE"/>
<path d="M24.4139 22.8524C24.3586 22.804 24.3142 22.8114 24.2808 22.8747C23.7384 23.8745 22.9742 24.503 21.9883 24.7601C20.6191 25.1176 19.2718 24.6726 18.3955 23.6105C18.3898 23.6039 18.3826 23.5986 18.3745 23.5951C18.3664 23.5916 18.3575 23.5899 18.3485 23.5902C18.3396 23.5905 18.3308 23.5927 18.3229 23.5968C18.3151 23.6008 18.3083 23.6065 18.3031 23.6134C18.0715 23.9279 17.7653 24.1579 17.3846 24.3032C17.106 24.4115 16.8353 24.3715 16.696 24.7053C16.5865 24.9703 16.5286 25.1068 16.5223 25.1147C15.8667 26.0715 14.7071 26.0908 13.8073 25.3327C13.7056 25.2467 13.5429 25.1874 13.4255 25.2037C11.9952 25.4039 10.975 24.4308 10.8623 23.1521C10.8571 23.0997 10.8346 23.0557 10.795 23.0201C9.76532 22.1221 9.65631 21.1183 10.4679 20.0087C10.4972 19.9691 10.4935 19.9325 10.457 19.8989C9.39289 18.905 9.4727 18.0847 10.5571 17.1679C10.5956 17.1354 10.6205 17.0907 10.6276 17.0418C10.7726 16.036 11.2639 15.2464 12.1016 14.6728C12.3353 14.5125 12.5158 14.3464 12.6431 14.1743C12.895 13.8376 13.0891 13.4741 13.4724 13.2709C13.7729 13.1107 14.0916 12.9886 14.4286 12.9045C14.4786 12.8926 14.5209 12.8684 14.5553 12.8318C15.2616 12.0891 16.1442 11.7074 17.203 11.6866C17.2114 11.6866 17.4054 11.7108 17.7852 11.7593C18.2609 11.8201 18.5551 11.5338 18.9197 11.4819C19.361 11.4186 19.773 11.5026 20.1559 11.7341C20.1997 11.7608 20.2456 11.7657 20.2936 11.7489C20.9769 11.5066 21.5836 11.6154 22.1135 12.0753C22.1511 12.1079 22.1939 12.1178 22.2418 12.1049C23.1056 11.8874 23.7686 12.1272 24.2308 12.8244C24.2408 12.8393 24.2547 12.8515 24.2711 12.8598C24.2876 12.8682 24.306 12.8723 24.3247 12.8719C25.7784 12.8348 27.2071 13.7174 27.5936 15.054C27.6 15.0753 27.6113 15.0949 27.6267 15.1114C27.6422 15.1278 27.6614 15.1407 27.6828 15.1489C28.5717 15.504 28.9227 16.1404 28.736 17.0581C28.7266 17.1046 28.7422 17.1417 28.7829 17.1694C29.4542 17.6248 29.5857 18.1247 29.4683 18.8753C29.3822 19.4257 29.667 19.9048 29.7062 20.3247C29.9565 23.0023 26.5937 24.8017 24.4139 22.8524ZM20.1277 11.9922C19.6364 11.6525 19.0981 11.6065 18.5472 11.8498C18.4304 11.9012 18.3083 11.9467 18.1811 11.9862C18.1258 12.004 18.1007 12.0401 18.106 12.0945L18.3626 14.9368C18.3678 14.9882 18.3975 15.0149 18.4518 15.0169C18.5707 15.0219 18.6808 15.052 18.782 15.1074C18.8362 15.1371 18.8858 15.1311 18.9306 15.0896L21.8945 12.3645C21.9062 12.3537 21.9154 12.3406 21.9214 12.3262C21.9275 12.3118 21.9304 12.2964 21.9298 12.2809C21.9292 12.2654 21.9252 12.2502 21.918 12.2362C21.9109 12.2222 21.9007 12.2099 21.8882 12.1999C21.4041 11.8102 20.8669 11.7459 20.2764 12.007C20.2242 12.0298 20.1747 12.0248 20.1277 11.9922ZM14.909 13.1552L17.6334 15.1074C17.6861 15.1455 17.7494 15.1682 17.8155 15.1727C17.8815 15.1772 17.9477 15.1635 18.0058 15.133C18.0639 15.1026 18.1115 15.0567 18.1429 15.0011C18.1743 14.9455 18.1881 14.8825 18.1826 14.8196L17.9448 12.1331C17.9354 12.0332 17.8785 11.9764 17.7742 11.9625C16.5797 11.8033 15.572 12.1331 14.7509 12.952C14.74 12.963 14.732 12.9764 14.7277 12.991C14.7234 13.0055 14.723 13.0208 14.7264 13.0355C14.7298 13.0502 14.737 13.0638 14.7472 13.0751C14.7575 13.0864 14.7706 13.0951 14.7854 13.1003L14.8479 13.1226C14.8699 13.1305 14.8902 13.1413 14.909 13.1552ZM24.0461 13.2116C24.0993 13.1532 24.1051 13.0875 24.0633 13.0143C23.7107 12.3843 23.15 12.1455 22.3811 12.2978C22.3638 12.3013 22.3474 12.3082 22.3331 12.3181C22.3188 12.3281 22.3068 12.3408 22.2979 12.3555C22.2891 12.3701 22.2836 12.3864 22.2817 12.4033C22.2799 12.4202 22.2818 12.4373 22.2872 12.4535L23.0837 14.7603C23.2371 15.2043 23.3936 15.2053 23.5532 14.7632C23.6909 14.3815 23.8333 13.9038 23.9804 13.3302C23.9919 13.2857 24.0138 13.2462 24.0461 13.2116ZM22.9304 15.1653C22.9481 15.1613 22.9664 15.1568 22.9852 15.1519C23.0217 15.143 23.0337 15.1217 23.0211 15.0881L22.1198 12.5099C22.0989 12.4486 22.064 12.4402 22.0149 12.4847L19.0339 15.2142C18.9797 15.2637 18.9724 15.3185 19.012 15.3789C19.0579 15.4471 19.0892 15.5203 19.1059 15.5984C19.1142 15.635 19.1388 15.6533 19.1794 15.6533L22.5 15.6548C22.5206 15.6548 22.5407 15.6482 22.5571 15.6361C22.5735 15.6241 22.5853 15.6072 22.5908 15.588C22.6294 15.4417 22.7077 15.3176 22.8255 15.2157C22.8558 15.19 22.8907 15.1732 22.9304 15.1653ZM26.5733 15.6889L27.2541 15.2365C27.2853 15.2161 27.3093 15.1871 27.3227 15.1534C27.3362 15.1197 27.3384 15.083 27.3292 15.0481C27.0209 13.8806 25.6798 13.1226 24.4671 13.1003C24.4537 13.1001 24.4406 13.1032 24.4289 13.1093C24.4172 13.1154 24.4074 13.1243 24.4005 13.1351C24.3935 13.1459 24.3897 13.1582 24.3893 13.1708C24.3889 13.1834 24.3919 13.196 24.3982 13.2071L25.5781 15.3863C25.595 15.4181 25.6227 15.4436 25.6568 15.4587C25.6909 15.4737 25.7293 15.4775 25.7659 15.4694C26.0528 15.408 26.288 15.4773 26.4716 15.677C26.5019 15.7097 26.5358 15.7136 26.5733 15.6889ZM13.0703 19.8055C13.0995 19.937 12.9967 20.0023 12.762 20.0013C12.1256 19.9993 11.4867 20.0196 10.8451 20.0621C10.7981 20.0651 10.7585 20.0833 10.7261 20.117C10.0793 20.8003 9.98284 21.5282 10.4366 22.3006C10.5196 22.443 11.1033 22.8673 11.1174 23.1595C11.1753 24.3285 12.039 24.9782 13.2596 25.0197C13.2996 25.0211 13.3395 25.0149 13.377 25.0016C13.4145 24.9882 13.4488 24.9679 13.4781 24.9419C13.5073 24.9158 13.5308 24.8845 13.5473 24.8498C13.5638 24.815 13.5729 24.7775 13.5742 24.7394L13.6962 20.6199C13.6973 20.5932 13.7113 20.5803 13.7385 20.5813L13.7823 20.5828C13.7929 20.583 13.8034 20.5852 13.8131 20.5892C13.8228 20.5933 13.8315 20.5992 13.8388 20.6065C13.8461 20.6138 13.8518 20.6224 13.8555 20.6319C13.8592 20.6413 13.8609 20.6513 13.8605 20.6614L13.7416 24.5539C13.7374 24.6954 13.7771 24.7072 13.8605 24.5895L14.5068 23.6876C14.5186 23.671 14.5341 23.657 14.5522 23.6467C14.5703 23.6365 14.5906 23.6302 14.6117 23.6283L18.1842 23.3286C18.2062 23.3269 18.2267 23.3206 18.2423 23.3106C18.2579 23.3007 18.2678 23.2877 18.2703 23.2737L18.4471 22.2502C18.452 22.2228 18.4473 22.1946 18.4337 22.17C18.4201 22.1453 18.3985 22.1256 18.372 22.1137C18.0768 21.9851 17.9239 21.7656 17.9135 21.455C17.912 21.4087 17.8963 21.3638 17.8682 21.3258C17.8401 21.2878 17.8009 21.2585 17.7554 21.2414L16.7993 20.8795C16.7809 20.8725 16.766 20.859 16.7578 20.8419C16.7497 20.8247 16.7488 20.8052 16.7555 20.7875L16.7805 20.7252C16.7931 20.6925 16.8155 20.6846 16.8478 20.7014C17.1811 20.8809 17.8697 20.9833 17.9745 21.3022C17.9839 21.3289 18.0037 21.3443 18.034 21.3482C18.0674 21.3522 18.0825 21.3339 18.0794 21.2933C18.0762 21.2439 18.0674 21.1954 18.0528 21.148C18.0465 21.1272 18.0439 21.1054 18.0449 21.0827C18.046 21.0501 18.0611 21.0199 18.0903 20.9922C18.2124 20.8775 18.3574 20.8092 18.5253 20.7875C18.637 20.7727 18.7048 20.7722 18.7288 20.786C18.7757 20.8127 18.8143 20.8765 18.8446 20.9774C18.8464 20.9839 18.8501 20.9897 18.8554 20.9942C18.8607 20.9987 18.8673 21.0016 18.8743 21.0025C18.8813 21.0035 18.8885 21.0025 18.8949 20.9996C18.9013 20.9967 18.9067 20.992 18.9103 20.9863C18.9437 20.9388 18.9864 20.9141 19.0386 20.9121C19.0772 20.9101 19.1163 20.9259 19.156 20.9596C19.2812 21.0654 19.3594 21.1979 19.3907 21.3571C19.397 21.3898 19.3943 21.417 19.3829 21.4387C19.3641 21.4753 19.3291 21.4941 19.278 21.4951C19.2567 21.4951 19.2363 21.503 19.221 21.5172C19.2058 21.5313 19.1971 21.5505 19.1967 21.5707C19.1956 21.6419 19.2227 21.7057 19.278 21.7621C19.2874 21.7719 19.2944 21.7834 19.2987 21.7959C19.3029 21.8085 19.3043 21.8217 19.3026 21.8348C19.301 21.8479 19.2964 21.8605 19.2892 21.8717C19.282 21.883 19.2723 21.8927 19.2608 21.9001L18.818 22.1745C18.8052 22.1827 18.7906 22.1881 18.7754 22.1904C18.7601 22.1927 18.7445 22.1919 18.7295 22.188C18.7145 22.184 18.7006 22.1771 18.6885 22.1676C18.6765 22.1581 18.6668 22.1463 18.6599 22.133L18.6036 22.0202C18.5598 21.9342 18.5243 21.9372 18.4972 22.0291C18.4784 22.0904 18.494 22.1419 18.5441 22.1834C18.5869 22.219 18.6041 22.2635 18.5958 22.3169L18.4643 23.204C18.457 23.2505 18.4669 23.293 18.494 23.3316C19.929 25.3238 23.0634 25.0138 24.0367 22.7916C24.0753 22.7016 24.0451 22.6467 23.946 22.627L19.4017 21.7102C19.3783 21.7055 19.3576 21.6927 19.3437 21.6743C19.3298 21.6559 19.3237 21.6333 19.3265 21.6108L19.3344 21.5574C19.3365 21.5396 19.3469 21.5327 19.3657 21.5366L24.0461 22.4801C24.0805 22.4871 24.1165 22.4807 24.1461 22.4623C24.1757 22.444 24.1966 22.4151 24.2042 22.3822L24.32 21.8541C24.3304 21.8036 24.3127 21.7651 24.2668 21.7384C24.0195 21.594 23.8745 21.3843 23.8317 21.1094C23.8256 21.0718 23.8082 21.0367 23.7816 21.0083C23.7549 20.9798 23.7202 20.9593 23.6815 20.9492L19.5268 19.8529C19.5129 19.8493 19.4981 19.8507 19.4852 19.8567C19.4722 19.8627 19.462 19.8729 19.4564 19.8856L19.0324 20.8231C19.0188 20.8537 18.9948 20.8661 18.9604 20.8602L18.8759 20.8453C18.8477 20.8404 18.8394 20.8256 18.8508 20.8008L19.3046 19.8233C19.3276 19.7738 19.3218 19.7283 19.2874 19.6868L18.5019 18.7359C18.4643 18.6904 18.4596 18.6414 18.4878 18.589C18.5212 18.5277 18.5071 18.4723 18.4455 18.4229C18.3662 18.3586 18.3297 18.3759 18.336 18.4748C18.3391 18.5183 18.3329 18.5623 18.3172 18.6068C18.2932 18.677 18.2426 18.7117 18.1654 18.7107L17.854 18.7092C17.7914 18.7082 17.7471 18.681 17.721 18.6276C17.6188 18.4209 17.5416 18.2839 17.4894 18.2167C17.4612 18.1791 17.4112 18.1672 17.3392 18.1811C17.328 18.1832 17.3164 18.183 17.3052 18.1806C17.294 18.1781 17.2835 18.1735 17.2742 18.167C17.2649 18.1604 17.2572 18.1521 17.2514 18.1425C17.2456 18.133 17.2419 18.1223 17.2406 18.1114C17.2323 18.0491 17.2406 17.9887 17.2656 17.9304C17.2729 17.9137 17.284 17.8988 17.2981 17.8867C17.3122 17.8746 17.3289 17.8658 17.347 17.8607L17.419 17.8399C17.4434 17.8331 17.464 17.8173 17.4763 17.7959C17.4886 17.7745 17.4916 17.7493 17.4847 17.7257L17.4738 17.6901C17.4539 17.6228 17.468 17.5625 17.516 17.5091C17.7111 17.2925 17.8947 17.2668 18.0668 17.4319C18.0726 17.4376 18.0797 17.442 18.0874 17.4448C18.0952 17.4477 18.1036 17.4489 18.112 17.4485C18.1204 17.4481 18.1286 17.446 18.1362 17.4424C18.1438 17.4388 18.1506 17.4337 18.156 17.4275L18.1889 17.3889C18.2063 17.3684 18.2312 17.3548 18.2585 17.3509C18.2859 17.3471 18.3135 17.3532 18.336 17.3682C18.7741 17.651 18.8618 18.012 18.5989 18.4511C18.5676 18.5045 18.5712 18.5549 18.6098 18.6024L19.411 19.5755C19.4496 19.624 19.5002 19.6408 19.5628 19.626L21.4438 19.1646C21.4645 19.1599 21.4863 19.1628 21.5049 19.1727C21.5235 19.1826 21.5374 19.1988 21.5439 19.218L21.5564 19.2581C21.5648 19.2838 21.5554 19.2996 21.5283 19.3055L19.9619 19.6972C19.8116 19.7347 19.8116 19.7728 19.9619 19.8114C21.196 20.1269 22.4536 20.4522 23.7347 20.7875C23.7858 20.8013 23.8281 20.8429 23.8615 20.9121C23.8792 20.9477 23.8969 20.9709 23.9147 20.9818C23.9449 21.0016 23.9825 21.0036 24.0273 20.9878C24.0363 20.9845 24.0441 20.9789 24.0498 20.9717C24.0555 20.9644 24.0589 20.9557 24.0595 20.9466C24.0602 20.9376 24.0581 20.9285 24.0535 20.9206C24.0489 20.9126 24.042 20.9061 24.0336 20.9017C23.9168 20.8404 23.8964 20.7662 23.9726 20.6792C24.199 20.4161 24.4931 20.3326 24.8551 20.4285C24.9031 20.4414 24.9297 20.471 24.935 20.5175C24.9496 20.6619 25.0085 20.79 25.1118 20.9017C25.1452 20.9383 25.1869 20.9536 25.237 20.9477C25.2933 20.9408 25.3225 20.968 25.3246 21.0293C25.334 21.3171 25.0022 21.9075 24.6126 21.7814C24.5709 21.7685 24.5521 21.7497 24.5563 21.725C24.5596 21.7016 24.5547 21.675 24.5426 21.6506C24.5305 21.6262 24.5121 21.6059 24.4913 21.594C24.4704 21.582 24.4487 21.5792 24.4305 21.5862C24.4123 21.5932 24.3991 21.6094 24.3935 21.6316L24.37 21.7176C24.3617 21.7463 24.3732 21.7641 24.4045 21.771L24.4749 21.7873C24.5041 21.7933 24.5156 21.8101 24.5093 21.8378L24.3669 22.3807C24.3523 22.4381 24.3659 22.4885 24.4076 22.532C26.3652 24.5376 29.8893 22.8658 29.473 20.246C29.4459 20.0779 29.3379 19.7417 29.1491 19.2373C29.1355 19.1997 29.1094 19.1893 29.0708 19.2061L26.4309 20.3766C26.424 20.3796 26.4162 20.3806 26.4086 20.3795C26.401 20.3784 26.394 20.3752 26.3883 20.3703C26.3826 20.3654 26.3786 20.359 26.3767 20.3519C26.3748 20.3449 26.3752 20.3375 26.3777 20.3306L26.3981 20.2816C26.4356 20.1877 26.4085 20.1659 26.3167 20.2164L25.8332 20.4834C25.804 20.4992 25.8029 20.5165 25.83 20.5353L25.8801 20.5709C25.8861 20.5747 25.8907 20.5801 25.8936 20.5863C25.8964 20.5925 25.8973 20.5994 25.8962 20.6061C25.895 20.6128 25.8918 20.6191 25.8871 20.6241C25.8823 20.6292 25.8761 20.6329 25.8692 20.6347C25.6563 20.693 25.4613 20.785 25.2839 20.9106C25.2599 20.9274 25.2396 20.924 25.2229 20.9002L25.1697 20.8216C25.154 20.7998 25.1587 20.783 25.1838 20.7712L25.5499 20.5902C25.6115 20.5595 25.6204 20.519 25.5765 20.4685C25.5056 20.3855 25.4696 20.2891 25.4686 20.1793C25.4686 20.1536 25.4555 20.1442 25.4294 20.1511L25.3841 20.1615C25.3715 20.1654 25.3658 20.1733 25.3668 20.1852C25.3908 20.3731 25.3204 20.518 25.1556 20.6199C25.1478 20.6245 25.1388 20.627 25.1296 20.6272C25.1204 20.6273 25.1113 20.625 25.1034 20.6205C25.0955 20.6161 25.089 20.6097 25.0847 20.602C25.0804 20.5942 25.0784 20.5856 25.0789 20.5768C25.0841 20.4997 25.1217 20.4384 25.1916 20.3929C25.2151 20.3775 25.2327 20.3553 25.2418 20.3296C25.2508 20.3039 25.2508 20.2762 25.2417 20.2505L25.0867 19.8055C25.07 19.759 25.0367 19.7308 24.9866 19.7209L23.0399 19.3085C23.0107 19.3016 22.9956 19.2838 22.9945 19.2551L22.993 19.2047C22.9927 19.1952 22.9947 19.1859 22.9989 19.1773C23.0031 19.1687 23.0094 19.1611 23.0172 19.1551C23.0251 19.1491 23.0343 19.1448 23.0442 19.1426C23.0541 19.1404 23.0644 19.1403 23.0743 19.1424L25.0445 19.5711C25.1092 19.5849 25.1405 19.623 25.1384 19.6853C25.1363 19.7288 25.1551 19.7624 25.1947 19.7862C25.2083 19.7941 25.2224 19.7951 25.237 19.7891L25.2823 19.7728C25.3157 19.7609 25.3246 19.7397 25.3089 19.709C25.0774 19.2714 25.575 19.1943 25.8739 19.1201C25.9333 19.1063 25.9698 19.127 25.9834 19.1824L26.0131 19.2951C26.0156 19.3052 26.0213 19.3143 26.0292 19.3213C26.0372 19.3282 26.0472 19.3328 26.058 19.3344C26.0687 19.336 26.0797 19.3345 26.0895 19.3302C26.0994 19.3258 26.1077 19.3188 26.1133 19.31L26.1524 19.2521C26.1588 19.2428 26.1671 19.2348 26.1767 19.2285C26.1864 19.2223 26.1972 19.2179 26.2086 19.2157C26.22 19.2135 26.2317 19.2135 26.243 19.2157C26.2543 19.2178 26.265 19.2222 26.2745 19.2284C26.3694 19.2907 26.4445 19.3688 26.4998 19.4628C26.5096 19.4795 26.5139 19.4985 26.5122 19.5175C26.5105 19.5365 26.5029 19.5547 26.4904 19.5696L26.4356 19.6349C26.3991 19.6794 26.408 19.7135 26.4622 19.7372C26.6177 19.8025 26.6594 19.9058 26.5874 20.0473C26.553 20.1145 26.5718 20.1328 26.6438 20.1021L28.1179 19.4746C28.1314 19.4687 28.1356 19.4593 28.1304 19.4465L28.1163 19.4079C28.1121 19.396 28.1038 19.3916 28.0912 19.3945L26.6438 19.7342C26.5999 19.7451 26.576 19.7288 26.5718 19.6853L26.5655 19.6171C26.5645 19.5993 26.5728 19.5884 26.5906 19.5844L29.0771 18.9896C29.1221 18.9789 29.1631 18.9564 29.1955 18.9247C29.2278 18.893 29.2503 18.8533 29.2602 18.8101C29.437 18.0402 29.0787 17.7123 28.5091 17.251C28.4694 17.2193 28.4564 17.1793 28.4699 17.1308C28.7036 16.2803 28.4079 15.6854 27.5827 15.3462C27.5725 15.3422 27.5616 15.3401 27.5506 15.3401C27.5396 15.3402 27.5287 15.3424 27.5187 15.3466C27.5087 15.3507 27.4998 15.3568 27.4925 15.3644C27.4852 15.372 27.4796 15.381 27.4763 15.3907L26.215 19.0815C26.2092 19.0998 26.1962 19.1154 26.1788 19.125C26.1614 19.1346 26.1408 19.1376 26.1211 19.1335L26.0742 19.1231C26.0408 19.1161 26.0293 19.0974 26.0397 19.0667L27.2321 15.5969C27.2843 15.4466 27.2431 15.4184 27.1085 15.5124L26.6735 15.818C26.6339 15.8457 26.6219 15.8813 26.6375 15.9248C26.916 16.6917 25.9599 17.2895 25.3543 16.6813C25.353 16.6802 25.3514 16.6795 25.3497 16.6792C25.348 16.6789 25.3462 16.6791 25.3446 16.6797C25.3429 16.6803 25.3415 16.6813 25.3405 16.6827C25.3394 16.684 25.3388 16.6856 25.3387 16.6873C25.3387 16.7001 25.3387 16.7125 25.3387 16.7244C25.3387 16.7362 25.334 16.7456 25.3246 16.7525L22.8756 18.6647C22.8579 18.6795 22.8422 18.6775 22.8287 18.6588L22.7849 18.595C22.7763 18.5834 22.7727 18.5691 22.7748 18.5551C22.7768 18.5411 22.7843 18.5283 22.7958 18.5193L25.1071 16.7169C25.1602 16.6754 25.1996 16.6203 25.2207 16.5582C25.2417 16.4961 25.2435 16.4295 25.2259 16.3664C25.2083 16.3033 25.172 16.2464 25.1212 16.2023C25.0705 16.1582 25.0075 16.1288 24.9396 16.1176L24.2151 15.9975C24.1671 15.9886 24.1249 15.9994 24.0884 16.0301C24.0581 16.0548 24.0336 16.084 24.0148 16.1176C23.8568 16.3846 23.6111 16.5152 23.284 16.4974C23.2235 16.4934 23.1844 16.5186 23.1667 16.573L22.5705 18.3621C22.5653 18.3779 22.5543 18.3823 22.5376 18.3754L22.4719 18.3487C22.4534 18.3414 22.4385 18.3278 22.4301 18.3108C22.4217 18.2937 22.4204 18.2744 22.4265 18.2567L23.0071 16.5256C23.0238 16.4751 23.0086 16.4366 22.9617 16.4099C22.7708 16.2991 22.6477 16.1389 22.5924 15.9292C22.5799 15.8788 22.546 15.8531 22.4907 15.8521L19.2154 15.8195C19.1487 15.8185 19.1054 15.8481 19.0856 15.9085L19.0245 16.0909C19.0089 16.1384 19.0209 16.1789 19.0605 16.2126C19.916 16.9454 20.7766 17.6728 21.6425 18.3947C21.7301 18.4679 21.7656 18.5554 21.7489 18.6573C21.7468 18.6701 21.7468 18.6795 21.7489 18.6855C21.7552 18.6993 21.7661 18.7072 21.7818 18.7092C21.8089 18.7131 21.824 18.7018 21.8272 18.6751C21.8564 18.416 22.0108 18.2993 22.2904 18.325C22.355 18.3309 22.3895 18.365 22.3936 18.4273L22.3983 18.5015C22.4036 18.5707 22.4312 18.5796 22.4813 18.5282L22.5517 18.4555C22.5903 18.416 22.6289 18.4155 22.6675 18.454C22.7353 18.5183 22.7457 18.5969 22.6988 18.6899C22.6953 18.6969 22.6936 18.7046 22.6937 18.7124C22.6939 18.7202 22.6959 18.7278 22.6997 18.7347C22.7035 18.7416 22.7089 18.7476 22.7156 18.7521C22.7222 18.7567 22.7298 18.7598 22.7379 18.7611C22.765 18.7651 22.7911 18.7626 22.8161 18.7537C22.8547 18.7408 22.8887 18.7487 22.9179 18.7774C22.9961 18.8556 23.0258 18.947 23.0071 19.0519C23.0036 19.0689 22.9943 19.0843 22.9806 19.0956C22.967 19.1069 22.9499 19.1134 22.9319 19.1142L22.8615 19.1186C22.7927 19.1216 22.7849 19.1438 22.8381 19.1854C22.9497 19.2734 22.9466 19.3728 22.8287 19.4835C22.4541 19.8326 22.0619 19.8267 21.6519 19.4657C21.6369 19.4526 21.6249 19.4366 21.6167 19.4188C21.6086 19.4009 21.6045 19.3817 21.6046 19.3623C21.6048 19.3429 21.6092 19.3237 21.6176 19.306C21.626 19.2883 21.6382 19.2725 21.6535 19.2595C21.7077 19.2121 21.7161 19.1641 21.6785 19.1157C21.6535 19.084 21.6206 19.0662 21.5799 19.0622C21.5643 19.0603 21.5502 19.0568 21.5377 19.0519C21.4897 19.0301 21.4766 18.9965 21.4985 18.951L21.6159 18.7047C21.6389 18.6563 21.629 18.6143 21.5862 18.5786L18.9353 16.3268C18.8884 16.2872 18.8388 16.2843 18.7867 16.3179L18.6521 16.4039C18.5999 16.4366 18.5441 16.4435 18.4847 16.4247C18.4095 16.401 18.3589 16.4202 18.3329 16.4825C18.2838 16.6012 18.2437 16.8519 18.2124 17.2347C18.2082 17.2841 18.18 17.3073 18.1279 17.3044L18.0841 17.3029C18.0423 17.3009 18.0246 17.2801 18.0308 17.2406L18.1513 16.4989C18.1547 16.4768 18.1498 16.4544 18.1375 16.4356C18.1251 16.4168 18.1062 16.403 18.0841 16.3965C17.8817 16.3342 17.7424 16.2101 17.6662 16.0242C17.6562 15.9999 17.6376 15.9798 17.6136 15.9671C17.5897 15.9544 17.5618 15.9499 17.5348 15.9544L15.3565 16.3327C15.3423 16.335 15.3276 16.3322 15.3155 16.3248C15.3033 16.3174 15.2945 16.3059 15.2908 16.2927L15.2783 16.2496C15.2647 16.2022 15.284 16.174 15.3362 16.1651L17.372 15.812C17.4379 15.8009 17.499 15.7717 17.5476 15.7282C17.5963 15.6846 17.6306 15.6286 17.6462 15.5669C17.6618 15.5052 17.6581 15.4405 17.6355 15.3808C17.613 15.321 17.5725 15.2688 17.5191 15.2305L14.7509 13.2412C14.7438 13.2362 14.7354 13.2332 14.7266 13.2325C14.7178 13.2318 14.7089 13.2335 14.701 13.2373C14.6932 13.2412 14.6867 13.2471 14.6822 13.2544C14.6777 13.2616 14.6755 13.2699 14.6758 13.2783L14.6821 15.6533C14.6821 15.683 14.6669 15.6924 14.6367 15.6815L14.5585 15.6533C14.5487 15.6497 14.5403 15.6434 14.5345 15.6352C14.5286 15.6269 14.5255 15.6172 14.5256 15.6073L14.5225 13.1997C14.5225 13.1855 14.5188 13.1714 14.5117 13.1589C14.5045 13.1464 14.4941 13.1358 14.4815 13.1281C14.4688 13.1204 14.4543 13.1159 14.4393 13.1149C14.4243 13.1139 14.4093 13.1166 14.3957 13.1226C14.1944 13.2106 13.9909 13.2927 13.7854 13.3688C13.2346 13.5706 13.064 14.0334 12.737 14.4265C12.6233 14.562 12.413 14.7405 12.1063 14.962C11.4136 15.4624 11.0016 16.1379 10.8701 16.9884C10.8683 16.9999 10.8694 17.0116 10.8735 17.0225C10.8775 17.0334 10.8843 17.0433 10.8932 17.0512C10.9021 17.059 10.913 17.0647 10.9248 17.0678C10.9366 17.0708 10.949 17.071 10.9609 17.0685L13.679 16.4885C13.7333 16.4766 13.7859 16.4816 13.8371 16.5033L13.9748 16.5612C14.0593 16.5968 14.0843 16.574 14.0499 16.4929C14.0248 16.4326 13.9774 16.399 13.9075 16.3921C13.8501 16.3861 13.8277 16.356 13.8402 16.3016C13.8981 16.0672 14.2564 15.4649 14.571 15.8195C14.6085 15.861 14.644 15.8595 14.6774 15.815C14.6878 15.8021 14.6951 15.7878 14.6993 15.772C14.7149 15.7146 14.753 15.6939 14.8135 15.7097C14.9825 15.7542 15.115 15.8432 15.211 15.9767C15.2261 15.9973 15.2352 16.0215 15.2371 16.0468C15.239 16.0721 15.2338 16.0976 15.2219 16.1206L15.1687 16.2215C15.1416 16.2729 15.1557 16.3115 15.211 16.3372C15.3184 16.3846 15.3555 16.4608 15.3221 16.5656C15.3096 16.6042 15.3226 16.6334 15.3612 16.6531L17.372 17.6307C17.4106 17.6495 17.4216 17.6782 17.4049 17.7168L17.3689 17.7939C17.3637 17.8048 17.3554 17.8078 17.3439 17.8028L15.2986 16.8104C15.2527 16.7886 15.2115 16.7946 15.175 16.8282C14.9205 17.0695 14.6252 17.1343 14.2893 17.0225C14.2655 17.0147 14.2456 16.999 14.2332 16.9782C14.2208 16.9574 14.2168 16.9331 14.222 16.9098C14.2377 16.8386 14.2225 16.7773 14.1766 16.7258C14.1339 16.6794 14.0973 16.6833 14.0671 16.7377C14.0441 16.7792 14.0441 16.8148 14.0671 16.8445C14.1078 16.8959 14.1036 16.9444 14.0546 16.9899L11.0798 19.7253C10.8461 19.9399 10.8831 20.0027 11.1909 19.9137C11.7261 19.7595 12.5038 19.8351 13.0703 19.8055ZM23.6925 15.1297C23.9741 15.2854 24.104 15.4056 24.115 15.7453C24.116 15.7937 24.1421 15.8224 24.1932 15.8313L25.0774 15.9737C25.1013 15.9778 25.126 15.9735 25.1467 15.9618C25.1674 15.95 25.1828 15.9316 25.19 15.9099C25.2453 15.7547 25.3528 15.6518 25.5124 15.6014C25.5739 15.5826 25.5745 15.5618 25.5139 15.5391C25.4795 15.5272 25.4576 15.5124 25.4482 15.4946C25.0685 14.7914 24.6846 14.0828 24.2965 13.3688C24.2339 13.2541 24.1843 13.2585 24.1478 13.3822L23.6533 15.0406C23.6419 15.0802 23.6549 15.1099 23.6925 15.1297ZM10.5931 17.4349C9.63231 18.1544 9.81697 19.089 10.6823 19.7817C10.6945 19.7914 10.7101 19.7965 10.726 19.796C10.7419 19.7954 10.757 19.7893 10.7684 19.7787L13.9247 16.8875C13.9685 16.847 13.9842 16.798 13.9716 16.7407C13.9643 16.708 13.9471 16.6813 13.92 16.6606C13.9053 16.649 13.888 16.6407 13.8693 16.6364C13.8506 16.632 13.8311 16.6316 13.812 16.6353C12.9493 16.8124 12.087 16.9924 11.2253 17.1753C10.9583 17.2317 10.7475 17.3182 10.5931 17.4349ZM17.9683 23.517L14.7697 23.7811C14.7287 23.7843 14.6889 23.7962 14.6534 23.816C14.618 23.8358 14.5876 23.8629 14.5647 23.8953L13.8308 24.9263C13.8192 24.9428 13.8137 24.9624 13.8151 24.982C13.8165 25.0016 13.8248 25.0201 13.8386 25.0346C14.6414 25.8861 16.0591 25.9261 16.4707 24.6978C16.5281 24.5287 16.5959 24.3932 16.6741 24.2914C16.7065 24.2479 16.7508 24.2216 16.8071 24.2127C17.287 24.1425 17.6902 23.9418 18.0168 23.6105C18.0867 23.5403 18.0705 23.5091 17.9683 23.517Z" fill="#FC00C5"/>
<path d="M13.0688 19.8059C13.1737 19.1888 13.8763 18.9737 14.3411 19.3995C14.3765 19.4321 14.3885 19.4717 14.3771 19.5182C14.3645 19.5656 14.3437 19.6111 14.3145 19.6546C14.3111 19.6601 14.3089 19.6661 14.308 19.6723C14.3071 19.6786 14.3076 19.6849 14.3093 19.6909C14.3111 19.6968 14.3141 19.7024 14.3182 19.7071C14.3224 19.7119 14.3275 19.7157 14.3332 19.7184C14.3541 19.7283 14.376 19.7318 14.399 19.7288C14.4146 19.7278 14.4245 19.7194 14.4287 19.7036C14.4558 19.58 14.5362 19.4949 14.6697 19.4484C15.5648 19.1419 16.4228 18.7596 17.2439 18.3017C17.2866 18.278 17.3284 18.2805 17.369 18.3092C17.416 18.3438 17.4525 18.3828 17.4786 18.4263C17.5161 18.4877 17.5015 18.502 17.4348 18.4694C17.416 18.4605 17.3983 18.4545 17.3816 18.4516C17.3565 18.4476 17.3325 18.4511 17.3096 18.4619L16.1985 19.0182C16.1579 19.0387 16.1243 19.0696 16.1018 19.1072C16.0793 19.1448 16.0689 19.1876 16.0718 19.2304L16.1093 19.7718C16.1114 19.8104 16.0927 19.8267 16.053 19.8208C16.0332 19.8178 16.0181 19.8247 16.0076 19.8415C15.997 19.8587 15.9878 19.8751 15.9814 19.8884C15.9749 19.9017 15.9715 19.9112 15.9716 19.9157C15.9748 19.9385 15.9821 19.9597 15.9935 19.9795C15.9973 19.9859 16.0023 19.9916 16.0084 19.996C16.0145 20.0005 16.0215 20.0038 16.029 20.0056C16.0365 20.0074 16.0443 20.0077 16.0519 20.0066C16.0596 20.0054 16.0669 20.0027 16.0734 19.9988C16.1047 19.98 16.1208 19.9518 16.1219 19.9142C16.1239 19.8638 16.1516 19.8406 16.2048 19.8445C16.306 19.8534 16.3602 19.9009 16.3675 19.9869C16.3728 20.0482 16.4077 20.0804 16.4724 20.0833C16.6612 20.0922 16.7718 20.2045 16.8041 20.4201C16.8198 20.5269 16.7906 20.6025 16.7165 20.6471C16.6879 20.6635 16.6596 20.693 16.6351 20.7316C16.5976 20.7909 16.6023 20.8458 16.6492 20.8963C16.6816 20.9319 16.6795 20.965 16.643 20.9957C15.9685 21.5861 15.0014 20.9081 15.4333 20.1857C15.6477 19.8267 16.1547 19.892 15.8903 19.2348C15.8872 19.2273 15.8825 19.2204 15.8766 19.2145C15.8706 19.2087 15.8635 19.2041 15.8556 19.2009C15.8477 19.1977 15.8393 19.196 15.8307 19.196C15.8221 19.196 15.8137 19.1976 15.8058 19.2007L14.6024 19.6621C14.5492 19.6818 14.5252 19.7194 14.5304 19.7748C14.5586 20.0379 14.448 20.2663 14.1987 20.4601C14.0808 20.5501 13.978 20.565 13.8904 20.5046C13.8226 20.4572 13.7772 20.4339 13.7543 20.4349C13.7146 20.4379 13.6828 20.4636 13.6588 20.5121C13.6538 20.5223 13.6467 20.5315 13.6378 20.539C13.6289 20.5465 13.6186 20.5523 13.6073 20.5559C13.596 20.5595 13.5841 20.5609 13.5722 20.56C13.5604 20.5591 13.5488 20.5559 13.5383 20.5506C13.3307 20.4458 13.181 20.291 13.0892 20.0863C13.0842 20.0751 13.0819 20.0631 13.0824 20.051C13.0829 20.0389 13.0862 20.0271 13.0921 20.0165C13.0979 20.0058 13.1062 19.9966 13.1162 19.9894C13.1263 19.9822 13.1379 19.9773 13.1502 19.9751C13.1753 19.9701 13.1977 19.9602 13.2175 19.9454C13.2665 19.9088 13.2645 19.8742 13.2112 19.8415C13.1726 19.8188 13.1252 19.8069 13.0688 19.8059Z" fill="#FC00C5"/>
<path d="M17.6077 18.5913L17.5368 18.5424C17.5186 18.5299 17.4932 18.5337 17.48 18.551L16.4498 19.8951C16.4366 19.9124 16.4406 19.9365 16.4588 19.949L16.5297 19.9978C16.5479 20.0103 16.5733 20.0065 16.5865 19.9893L17.6167 18.6451C17.6299 18.6279 17.6259 18.6038 17.6077 18.5913Z" fill="#FC00C5"/>
</svg>
