<svg width="21" height="15" viewBox="0 0 21 15" fill="none" xmlns="http://www.w3.org/2000/svg">
<path d="M15.4139 11.8524C15.3586 11.804 15.3142 11.8114 15.2808 11.8747C14.7384 12.8745 13.9742 13.503 12.9883 13.7601C11.6191 14.1176 10.2718 13.6726 9.39546 12.6105C9.38982 12.6039 9.38265 12.5986 9.3745 12.5951C9.36636 12.5916 9.35746 12.5899 9.34852 12.5902C9.33957 12.5905 9.33081 12.5927 9.32294 12.5968C9.31506 12.6008 9.30828 12.6065 9.30313 12.6134C9.07153 12.9279 8.76534 13.1579 8.38456 13.3032C8.10602 13.4115 7.8353 13.3715 7.69603 13.7053C7.58649 13.9703 7.52859 14.1068 7.52233 14.1147C6.86666 15.0715 5.70711 15.0908 4.80732 14.3327C4.70561 14.2467 4.54287 14.1874 4.4255 14.2037C2.99523 14.4039 1.97495 13.4308 1.86228 12.1521C1.85707 12.0997 1.83464 12.0557 1.79499 12.0201C0.765324 11.1221 0.656307 10.1183 1.46794 9.00868C1.49715 8.96912 1.4935 8.93253 1.45699 8.89891C0.392893 7.90501 0.4727 7.08466 1.55714 6.1679C1.59557 6.13536 1.62054 6.09066 1.62756 6.04181C1.77257 5.03603 2.26393 4.24635 3.10164 3.67275C3.33533 3.51254 3.51581 3.3464 3.64308 3.17432C3.89502 2.83758 4.08906 2.47414 4.47245 2.27091C4.7729 2.11069 5.0916 1.98856 5.42857 1.9045C5.47864 1.89263 5.5209 1.8684 5.55532 1.83181C6.26159 1.0891 7.14416 0.70736 8.20304 0.686592C8.21139 0.686592 8.40543 0.710822 8.78517 0.759281C9.26088 0.820102 9.55507 0.533797 9.91968 0.481876C10.361 0.418583 10.773 0.502646 11.1559 0.734063C11.1997 0.760765 11.2456 0.765708 11.2936 0.748896C11.9769 0.506601 12.5836 0.615386 13.1135 1.07525C13.1511 1.10789 13.1939 1.11778 13.2418 1.10492C14.1056 0.887351 14.7686 1.12717 15.2308 1.82439C15.2408 1.83931 15.2547 1.85153 15.2711 1.85985C15.2876 1.86817 15.306 1.87231 15.3247 1.87186C16.7784 1.83477 18.2071 2.71742 18.5936 4.054C18.6 4.07529 18.6113 4.09491 18.6267 4.11137C18.6422 4.12782 18.6614 4.14067 18.6828 4.14894C19.5717 4.50397 19.9227 5.14037 19.736 6.05812C19.7266 6.1046 19.7422 6.14169 19.7829 6.16938C20.4542 6.6248 20.5857 7.12472 20.4683 7.87534C20.3822 8.42569 20.667 8.90484 20.7062 9.32466C20.9565 12.0023 17.5937 13.8017 15.4139 11.8524ZM11.1277 0.99218C10.6364 0.652472 10.0981 0.606487 9.54725 0.849771C9.4304 0.901197 9.30835 0.946689 9.18107 0.986247C9.12578 1.00405 9.10074 1.04014 9.10596 1.09454L9.36259 3.93681C9.36781 3.98823 9.39754 4.01493 9.45179 4.01691C9.57072 4.02186 9.68078 4.05202 9.78197 4.1074C9.83622 4.13707 9.88577 4.13114 9.93063 4.0896L12.8945 1.36452C12.9062 1.35369 12.9154 1.34065 12.9214 1.32624C12.9275 1.31184 12.9304 1.29639 12.9298 1.28088C12.9292 1.26537 12.9252 1.25015 12.918 1.2362C12.9109 1.22225 12.9007 1.20987 12.8882 1.19986C12.4041 0.810213 11.8669 0.74593 11.2764 1.00701C11.2242 1.02976 11.1747 1.02482 11.1277 0.99218ZM5.90898 2.1552L8.63338 4.1074C8.68612 4.14547 8.74936 4.16816 8.81545 4.1727C8.88155 4.17724 8.94765 4.16345 9.00577 4.133C9.06389 4.10255 9.11152 4.05674 9.14291 4.00112C9.1743 3.9455 9.1881 3.88246 9.18264 3.81961L8.94478 1.13311C8.93539 1.03322 8.87854 0.976357 8.77421 0.962511C7.57971 0.803289 6.57195 1.13311 5.75093 1.95196C5.73997 1.96299 5.732 1.97638 5.72771 1.99096C5.72343 2.00554 5.72297 2.02084 5.72638 2.03552C5.72978 2.0502 5.73695 2.0638 5.74724 2.0751C5.75753 2.0864 5.77062 2.09506 5.78535 2.10031L5.84795 2.12256C5.86986 2.13047 5.8902 2.14135 5.90898 2.1552ZM15.0461 2.21157C15.0993 2.15322 15.1051 2.08745 15.0633 2.01427C14.7107 1.3843 14.15 1.14547 13.3811 1.29777C13.3638 1.30125 13.3474 1.30819 13.3331 1.31812C13.3188 1.32806 13.3068 1.34078 13.2979 1.35546C13.2891 1.37014 13.2836 1.38645 13.2817 1.40334C13.2799 1.42023 13.2818 1.43733 13.2872 1.45353L14.0837 3.76028C14.2371 4.20432 14.3936 4.20531 14.5532 3.76324C14.6909 3.38151 14.8333 2.90384 14.9804 2.33024C14.9919 2.28574 15.0138 2.24618 15.0461 2.21157ZM13.9304 4.16525C13.9481 4.1613 13.9664 4.15685 13.9852 4.1519C14.0217 4.143 14.0337 4.12174 14.0211 4.08812L13.1198 1.5099C13.0989 1.44859 13.064 1.44018 13.0149 1.48468L10.0339 4.21421C9.97967 4.26366 9.97236 4.31854 10.012 4.37887C10.0579 4.44711 10.0892 4.52029 10.1059 4.59842C10.1142 4.63501 10.1388 4.65331 10.1794 4.65331L13.5 4.65479C13.5206 4.65475 13.5407 4.6482 13.5571 4.63614C13.5735 4.62408 13.5853 4.60718 13.5908 4.58804C13.6294 4.44167 13.7077 4.31756 13.8255 4.21569C13.8558 4.18998 13.8907 4.17317 13.9304 4.16525ZM17.5733 4.68891L18.2541 4.23646C18.2853 4.21606 18.3093 4.18709 18.3227 4.15341C18.3362 4.11974 18.3384 4.08298 18.3292 4.04806C18.0209 2.8806 16.6798 2.12256 15.4671 2.10031C15.4537 2.10012 15.4406 2.10323 15.4289 2.10932C15.4172 2.11542 15.4074 2.1243 15.4005 2.13509C15.3935 2.14587 15.3897 2.15818 15.3893 2.17082C15.3889 2.18345 15.3919 2.19596 15.3982 2.20712L16.5781 4.38629C16.595 4.41811 16.6227 4.4436 16.6568 4.45867C16.6909 4.47374 16.7293 4.4775 16.7659 4.46936C17.0528 4.40804 17.288 4.47727 17.4716 4.67704C17.5019 4.70968 17.5358 4.71363 17.5733 4.68891ZM4.07028 8.80545C4.09949 8.93698 3.99673 9.00225 3.76201 9.00126C3.12564 8.99929 2.48666 9.01956 1.84507 9.06208C1.79812 9.06505 1.75848 9.08335 1.72614 9.11697C1.07934 9.80034 0.982839 10.5282 1.43664 11.3006C1.51958 11.443 2.10327 11.8673 2.11735 12.1595C2.17525 13.3285 3.03905 13.9782 4.25963 14.0197C4.29962 14.0211 4.33952 14.0149 4.37701 14.0016C4.4145 13.9882 4.44884 13.9679 4.47807 13.9419C4.50731 13.9158 4.53085 13.8845 4.54734 13.8498C4.56383 13.815 4.57294 13.7775 4.57416 13.7394L4.69622 9.61986C4.69726 9.59316 4.71135 9.5803 4.73847 9.58129L4.78229 9.58277C4.7929 9.58296 4.80337 9.58516 4.81308 9.58923C4.82279 9.59331 4.83155 9.59918 4.83884 9.6065C4.84612 9.61382 4.85179 9.62245 4.85552 9.63187C4.85924 9.6413 4.86095 9.65134 4.86053 9.6614L4.7416 13.5539C4.73743 13.6954 4.77707 13.7072 4.86053 13.5895L5.50681 12.6876C5.51855 12.671 5.53405 12.657 5.55219 12.6467C5.57032 12.6365 5.59063 12.6302 5.61166 12.6283L9.1842 12.3286C9.20623 12.3269 9.22671 12.3206 9.24233 12.3106C9.25795 12.3007 9.26779 12.2877 9.27027 12.2737L9.4471 11.2502C9.45196 11.2228 9.44726 11.1946 9.4337 11.17C9.42014 11.1453 9.39847 11.1256 9.37198 11.1137C9.07675 10.9851 8.92392 10.7656 8.91348 10.455C8.91203 10.4087 8.89629 10.3638 8.8682 10.3258C8.84011 10.2878 8.80091 10.2585 8.75543 10.2414L7.79931 9.87946C7.78087 9.87249 7.766 9.85901 7.75782 9.84186C7.74965 9.8247 7.74882 9.80521 7.7555 9.78749L7.78053 9.72518C7.79305 9.69255 7.81548 9.68463 7.84782 9.70145C8.18114 9.88094 8.86967 9.9833 8.97451 10.3022C8.9839 10.3289 9.00372 10.3443 9.03398 10.3482C9.06736 10.3522 9.08249 10.3339 9.07936 10.2933C9.07623 10.2439 9.06736 10.1954 9.05275 10.148C9.0465 10.1272 9.04389 10.1054 9.04493 10.0827C9.04597 10.0501 9.0611 10.0199 9.09031 9.9922C9.21237 9.87748 9.35738 9.80925 9.52534 9.78749C9.63696 9.77265 9.70478 9.77216 9.72877 9.786C9.77571 9.81271 9.81431 9.8765 9.84457 9.97737C9.84636 9.98388 9.85013 9.98974 9.85542 9.99421C9.86071 9.99869 9.86728 10.0016 9.87431 10.0025C9.88133 10.0035 9.88849 10.0025 9.89489 9.99956C9.9013 9.99667 9.90665 9.99204 9.91029 9.98627C9.94367 9.9388 9.98645 9.91407 10.0386 9.9121C10.0772 9.91012 10.1163 9.92594 10.156 9.95957C10.2812 10.0654 10.3594 10.1979 10.3907 10.3571C10.397 10.3898 10.3943 10.417 10.3829 10.4387C10.3641 10.4753 10.3291 10.4941 10.278 10.4951C10.2567 10.4951 10.2363 10.503 10.221 10.5172C10.2058 10.5313 10.1971 10.5505 10.1967 10.5707C10.1956 10.6419 10.2227 10.7057 10.278 10.7621C10.2874 10.7719 10.2944 10.7834 10.2987 10.7959C10.3029 10.8085 10.3043 10.8217 10.3026 10.8348C10.301 10.8479 10.2964 10.8605 10.2892 10.8717C10.282 10.883 10.2723 10.8927 10.2608 10.9001L9.81796 11.1745C9.80516 11.1827 9.79064 11.1881 9.77537 11.1904C9.76011 11.1927 9.74447 11.1919 9.72949 11.188C9.71451 11.184 9.70055 11.1771 9.68855 11.1676C9.67655 11.1581 9.66679 11.1463 9.65992 11.133L9.60358 11.0202C9.55977 10.9342 9.52429 10.9372 9.49717 11.0291C9.47839 11.0904 9.49404 11.1419 9.54412 11.1834C9.58689 11.219 9.6041 11.2635 9.59576 11.3169L9.46431 12.204C9.45701 12.2505 9.46692 12.293 9.49404 12.3316C10.929 14.3238 14.0634 14.0138 15.0367 11.7916C15.0753 11.7016 15.0451 11.6467 14.946 11.627L10.4017 10.7102C10.3783 10.7055 10.3576 10.6927 10.3437 10.6743C10.3298 10.6559 10.3237 10.6333 10.3265 10.6108L10.3344 10.5574C10.3365 10.5396 10.3469 10.5327 10.3657 10.5366L15.0461 11.4801C15.0805 11.4871 15.1165 11.4807 15.1461 11.4623C15.1757 11.444 15.1966 11.4151 15.2042 11.3822L15.32 10.8541C15.3304 10.8036 15.3127 10.7651 15.2668 10.7384C15.0195 10.594 14.8745 10.3843 14.8317 10.1094C14.8256 10.0718 14.8082 10.0367 14.7816 10.0083C14.7549 9.97984 14.7202 9.95932 14.6815 9.94918L10.5268 8.85292C10.5129 8.84934 10.4981 8.85068 10.4852 8.85668C10.4722 8.86268 10.462 8.87295 10.4564 8.88556L10.0324 9.82309C10.0188 9.85375 9.99479 9.86611 9.96037 9.86018L9.87587 9.84534C9.8477 9.8404 9.83935 9.82556 9.85083 9.80084L10.3046 8.82325C10.3276 8.77381 10.3218 8.72831 10.2874 8.68677L9.50186 7.73589C9.46431 7.6904 9.45961 7.64145 9.48778 7.58903C9.52117 7.52772 9.50708 7.47233 9.44553 7.42289C9.36625 7.3586 9.32973 7.37591 9.33599 7.47481C9.33912 7.51832 9.33286 7.56233 9.31721 7.60683C9.29322 7.67705 9.24262 7.71166 9.16542 7.71067L8.85402 7.70919C8.79142 7.7082 8.74709 7.68101 8.72101 7.6276C8.61877 7.42091 8.54157 7.28394 8.48941 7.21669C8.46124 7.17911 8.41117 7.16724 8.33918 7.18109C8.32796 7.18318 8.31638 7.183 8.3052 7.18057C8.29402 7.17814 8.28347 7.1735 8.27421 7.16695C8.26495 7.16041 8.25718 7.15209 8.2514 7.14252C8.24561 7.13295 8.24194 7.12234 8.2406 7.11136C8.23225 7.04906 8.2406 6.98873 8.26564 6.93038C8.27295 6.91369 8.28405 6.89877 8.29813 6.88671C8.3122 6.87465 8.3289 6.86575 8.34701 6.86066L8.41899 6.83989C8.44343 6.83308 8.46402 6.81729 8.47632 6.79592C8.48862 6.77455 8.49163 6.74932 8.48471 6.72567L8.47376 6.69007C8.45394 6.62282 8.46802 6.56249 8.51601 6.50909C8.7111 6.29251 8.8947 6.26679 9.06684 6.43195C9.07264 6.43758 9.07966 6.44197 9.08743 6.44482C9.0952 6.44767 9.10356 6.44893 9.11196 6.44851C9.12037 6.44809 9.12863 6.44601 9.13622 6.44239C9.14381 6.43877 9.15056 6.4337 9.15603 6.4275L9.1889 6.38893C9.20632 6.36837 9.23121 6.35479 9.25853 6.35093C9.28585 6.34707 9.31354 6.35323 9.33599 6.36816C9.77415 6.651 9.86178 7.01197 9.59889 7.45107C9.56759 7.50448 9.57124 7.55491 9.60984 7.60238L10.411 8.57552C10.4496 8.62398 10.5002 8.64079 10.5628 8.62595L12.4438 8.16461C12.4645 8.1599 12.4863 8.16278 12.5049 8.17269C12.5235 8.18259 12.5374 8.19878 12.5439 8.21801L12.5564 8.25806C12.5648 8.28378 12.5554 8.2996 12.5283 8.30553L10.9619 8.69716C10.8116 8.73474 10.8116 8.77281 10.9619 8.81138C12.196 9.12686 13.4536 9.45223 14.7347 9.78749C14.7858 9.80133 14.8281 9.84287 14.8615 9.9121C14.8792 9.9477 14.8969 9.97094 14.9147 9.98182C14.9449 10.0016 14.9825 10.0036 15.0273 9.98775C15.0363 9.98454 15.0441 9.97895 15.0498 9.97166C15.0555 9.96437 15.0589 9.95569 15.0595 9.94663C15.0602 9.93758 15.0581 9.92853 15.0535 9.92057C15.0489 9.91261 15.042 9.90606 15.0336 9.90171C14.9168 9.8404 14.8964 9.76622 14.9726 9.6792C15.199 9.41613 15.4931 9.33257 15.8551 9.42849C15.9031 9.44135 15.9297 9.47102 15.935 9.5175C15.9496 9.66189 16.0085 9.78996 16.1118 9.90171C16.1452 9.9383 16.1869 9.95363 16.237 9.9477C16.2933 9.94077 16.3225 9.96797 16.3246 10.0293C16.334 10.3171 16.0022 10.9075 15.6126 10.7814C15.5709 10.7685 15.5521 10.7497 15.5563 10.725C15.5596 10.7016 15.5547 10.675 15.5426 10.6506C15.5305 10.6262 15.5121 10.6059 15.4913 10.594C15.4704 10.582 15.4487 10.5792 15.4305 10.5862C15.4123 10.5932 15.3991 10.6094 15.3935 10.6316L15.37 10.7176C15.3617 10.7463 15.3732 10.7641 15.4045 10.771L15.4749 10.7873C15.5041 10.7933 15.5156 10.8101 15.5093 10.8378L15.3669 11.3807C15.3523 11.4381 15.3659 11.4885 15.4076 11.532C17.3652 13.5376 20.8893 11.8658 20.473 9.24603C20.4459 9.07791 20.3379 8.74166 20.1491 8.23729C20.1355 8.19971 20.1094 8.18933 20.0708 8.20614L17.4309 9.37657C17.424 9.3796 17.4162 9.38062 17.4086 9.3795C17.401 9.37837 17.394 9.37516 17.3883 9.37026C17.3826 9.36536 17.3786 9.35899 17.3767 9.35193C17.3748 9.34488 17.3752 9.33745 17.3777 9.33059L17.3981 9.28164C17.4356 9.18768 17.4085 9.16593 17.3167 9.21636L16.8332 9.48338C16.804 9.4992 16.8029 9.51651 16.83 9.5353L16.8801 9.57091C16.8861 9.57471 16.8907 9.58005 16.8936 9.58629C16.8964 9.59253 16.8973 9.59941 16.8962 9.60612C16.895 9.61283 16.8918 9.61908 16.8871 9.62415C16.8823 9.62921 16.8761 9.63287 16.8692 9.63469C16.6563 9.69304 16.4613 9.78501 16.2839 9.91061C16.2599 9.92742 16.2396 9.92397 16.2229 9.90023L16.1697 9.8216C16.154 9.79985 16.1587 9.78304 16.1838 9.77117L16.5499 9.59019C16.6115 9.55953 16.6204 9.51899 16.5765 9.46855C16.5056 9.38548 16.4696 9.28905 16.4686 9.17928C16.4686 9.15356 16.4555 9.14417 16.4294 9.15109L16.3841 9.16148C16.3715 9.16543 16.3658 9.17335 16.3668 9.18521C16.3908 9.37311 16.3204 9.518 16.1556 9.61986C16.1478 9.62451 16.1388 9.62704 16.1296 9.62716C16.1204 9.62728 16.1113 9.62499 16.1034 9.62055C16.0955 9.6161 16.089 9.60967 16.0847 9.60195C16.0804 9.59424 16.0784 9.58555 16.0789 9.57684C16.0841 9.4997 16.1217 9.43839 16.1916 9.39289C16.2151 9.37754 16.2327 9.35533 16.2418 9.32964C16.2508 9.30394 16.2508 9.27616 16.2417 9.25048L16.0867 8.80545C16.07 8.75897 16.0367 8.73079 15.9866 8.7209L14.0399 8.3085C14.0107 8.30158 13.9956 8.28378 13.9945 8.2551L13.993 8.20466C13.9927 8.19522 13.9947 8.18585 13.9989 8.17727C14.0031 8.16869 14.0094 8.16111 14.0172 8.15511C14.0251 8.14911 14.0343 8.14484 14.0442 8.14263C14.0541 8.14042 14.0644 8.14033 14.0743 8.14235L16.0445 8.57107C16.1092 8.58491 16.1405 8.62299 16.1384 8.68529C16.1363 8.72881 16.1551 8.76243 16.1947 8.78617C16.2083 8.79408 16.2224 8.79507 16.237 8.78913L16.2823 8.77282C16.3157 8.76095 16.3246 8.73968 16.3089 8.70903C16.0774 8.27141 16.575 8.19427 16.8739 8.1201C16.9333 8.10626 16.9698 8.12702 16.9834 8.18241L17.0131 8.29515C17.0156 8.30517 17.0213 8.31426 17.0292 8.32125C17.0372 8.32825 17.0472 8.33283 17.058 8.33442C17.0687 8.33601 17.0797 8.33454 17.0895 8.33018C17.0994 8.32583 17.1077 8.3188 17.1133 8.30998L17.1524 8.25213C17.1588 8.24282 17.1671 8.2348 17.1767 8.22854C17.1864 8.22228 17.1972 8.21792 17.2086 8.21571C17.22 8.21349 17.2317 8.21347 17.243 8.21565C17.2543 8.21783 17.265 8.22217 17.2745 8.22839C17.3694 8.2907 17.4445 8.36883 17.4998 8.46278C17.5096 8.47946 17.5139 8.49852 17.5122 8.51753C17.5105 8.53654 17.5029 8.55466 17.4904 8.56959L17.4356 8.63485C17.3991 8.67936 17.408 8.71348 17.4622 8.73721C17.6177 8.80248 17.6594 8.90583 17.5874 9.04725C17.553 9.1145 17.5718 9.1328 17.6438 9.10214L19.1179 8.47464C19.1314 8.46871 19.1356 8.45932 19.1304 8.44646L19.1163 8.40789C19.1121 8.39602 19.1038 8.39157 19.0912 8.39454L17.6438 8.73425C17.5999 8.74512 17.576 8.72881 17.5718 8.68529L17.5655 8.61705C17.5645 8.59925 17.5728 8.58837 17.5906 8.58442L20.0771 7.98956C20.1221 7.9789 20.1631 7.95645 20.1955 7.92473C20.2278 7.89301 20.2503 7.8533 20.2602 7.81006C20.437 7.04016 20.0787 6.71232 19.5091 6.25097C19.4694 6.21932 19.4564 6.17927 19.4699 6.13081C19.7036 5.28031 19.4079 4.68545 18.5827 4.34623C18.5725 4.34215 18.5616 4.34007 18.5506 4.34013C18.5396 4.34018 18.5287 4.34237 18.5187 4.34655C18.5087 4.35073 18.4998 4.35682 18.4925 4.36443C18.4852 4.37203 18.4796 4.38099 18.4763 4.39074L17.215 8.08153C17.2092 8.09983 17.1962 8.11536 17.1788 8.12499C17.1614 8.13462 17.1408 8.13764 17.1211 8.13345L17.0742 8.12307C17.0408 8.11615 17.0293 8.09736 17.0397 8.0667L18.2321 4.59694C18.2843 4.44661 18.2431 4.41843 18.1085 4.51238L17.6735 4.81797C17.6339 4.84566 17.6219 4.88126 17.6375 4.92478C17.916 5.69171 16.9599 6.28954 16.3543 5.68133C16.353 5.68022 16.3514 5.67947 16.3497 5.67918C16.348 5.67889 16.3462 5.67906 16.3446 5.67968C16.3429 5.68029 16.3415 5.68133 16.3405 5.68267C16.3394 5.68401 16.3388 5.68561 16.3387 5.68726C16.3387 5.70012 16.3387 5.71248 16.3387 5.72435C16.3387 5.73622 16.334 5.74561 16.3246 5.75253L13.8756 7.66469C13.8579 7.67952 13.8422 7.67754 13.8287 7.65875L13.7849 7.59497C13.7763 7.58335 13.7727 7.56913 13.7748 7.55511C13.7768 7.5411 13.7843 7.52832 13.7958 7.51931L16.1071 5.71693C16.1602 5.6754 16.1996 5.6203 16.2207 5.55818C16.2417 5.49605 16.2435 5.4295 16.2259 5.36642C16.2083 5.30334 16.172 5.24637 16.1212 5.20227C16.0705 5.15818 16.0075 5.1288 15.9396 5.11762L15.2151 4.99746C15.1671 4.98856 15.1249 4.99944 15.0884 5.0301C15.0581 5.05482 15.0336 5.084 15.0148 5.11762C14.8568 5.38464 14.6111 5.51519 14.284 5.49738C14.2235 5.49343 14.1844 5.51865 14.1667 5.57304L13.5705 7.36207C13.5653 7.37789 13.5543 7.38234 13.5376 7.37542L13.4719 7.34871C13.4534 7.34136 13.4385 7.32781 13.4301 7.31077C13.4217 7.29373 13.4204 7.27445 13.4265 7.25674L14.0071 5.52557C14.0238 5.47513 14.0086 5.43656 13.9617 5.40986C13.7708 5.2991 13.6477 5.13889 13.5924 4.92923C13.5799 4.87879 13.546 4.85308 13.4907 4.85209L10.2154 4.81945C10.1487 4.81846 10.1054 4.84813 10.0856 4.90846L10.0245 5.09092C10.0089 5.13839 10.0209 5.17894 10.0605 5.21256C10.916 5.94538 11.7766 6.67276 12.6425 7.3947C12.7301 7.46788 12.7656 7.55541 12.7489 7.65727C12.7468 7.67013 12.7468 7.67952 12.7489 7.68546C12.7552 7.6993 12.7661 7.70721 12.7818 7.70919C12.8089 7.71315 12.824 7.70177 12.8272 7.67507C12.8564 7.41596 13.0108 7.29927 13.2904 7.32498C13.355 7.33091 13.3895 7.36503 13.3936 7.42734L13.3983 7.50151C13.4036 7.57074 13.4312 7.57964 13.4813 7.52821L13.5517 7.45552C13.5903 7.41596 13.6289 7.41547 13.6675 7.45404C13.7353 7.51832 13.7457 7.59694 13.6988 7.68991C13.6953 7.69694 13.6936 7.70464 13.6937 7.71241C13.6939 7.72018 13.6959 7.72781 13.6997 7.7347C13.7035 7.74159 13.7089 7.74756 13.7156 7.75214C13.7222 7.75673 13.7298 7.75979 13.7379 7.76111C13.765 7.76507 13.7911 7.76259 13.8161 7.75369C13.8547 7.74084 13.8887 7.74875 13.9179 7.77743C13.9961 7.85556 14.0258 7.94703 14.0071 8.05186C14.0036 8.06887 13.9943 8.08427 13.9806 8.09557C13.967 8.10688 13.9499 8.11343 13.9319 8.11417L13.8615 8.11862C13.7927 8.12159 13.7849 8.14384 13.8381 8.18537C13.9497 8.27339 13.9466 8.37278 13.8287 8.48354C13.4541 8.83265 13.0619 8.82671 12.6519 8.46574C12.6369 8.45257 12.6249 8.43657 12.6167 8.41876C12.6086 8.40095 12.6045 8.38173 12.6046 8.36232C12.6048 8.34291 12.6092 8.32374 12.6176 8.30604C12.626 8.28835 12.6382 8.27251 12.6535 8.25955C12.7077 8.21208 12.7161 8.16411 12.6785 8.11565C12.6535 8.08401 12.6206 8.0662 12.5799 8.06225C12.5643 8.06027 12.5502 8.05681 12.5377 8.05186C12.4897 8.03011 12.4766 7.99648 12.4985 7.95099L12.6159 7.70474C12.6389 7.65628 12.629 7.61425 12.5862 7.57865L9.93533 5.32679C9.88838 5.28723 9.83883 5.28426 9.78667 5.31789L9.65209 5.40393C9.59993 5.43656 9.54412 5.44349 9.48465 5.42469C9.40954 5.40096 9.35894 5.42024 9.33286 5.48255C9.28383 5.60122 9.24367 5.85192 9.21237 6.23465C9.2082 6.2841 9.18003 6.30734 9.12787 6.30437L9.08405 6.30289C9.04232 6.30091 9.02459 6.28014 9.03085 6.24059L9.15134 5.49887C9.15472 5.47681 9.1498 5.45436 9.13746 5.43559C9.12512 5.41682 9.10618 5.40296 9.08405 5.39651C8.88166 5.3342 8.74239 5.21009 8.66624 5.02417C8.65618 4.99995 8.6376 4.97977 8.61364 4.96706C8.58968 4.95436 8.56182 4.9499 8.53479 4.95445L6.35652 5.33272C6.34227 5.33503 6.32762 5.3322 6.31546 5.32479C6.3033 5.31738 6.2945 5.30592 6.2908 5.29267L6.27828 5.24965C6.26472 5.20218 6.28402 5.17399 6.33618 5.16509L8.37205 4.81203C8.43794 4.80086 8.49896 4.77172 8.54765 4.72818C8.59634 4.68464 8.63058 4.62858 8.64619 4.56688C8.6618 4.50518 8.6581 4.4405 8.63553 4.38076C8.61297 4.32102 8.57252 4.26881 8.51914 4.23053L5.75093 2.24123C5.74385 2.23619 5.73541 2.23315 5.72658 2.23247C5.71775 2.23178 5.7089 2.23347 5.70105 2.23735C5.69319 2.24123 5.68666 2.24713 5.68219 2.25438C5.67773 2.26163 5.67552 2.26993 5.67581 2.27832L5.68208 4.65331C5.68208 4.68298 5.66695 4.69237 5.63669 4.68149L5.55845 4.65331C5.5487 4.6497 5.54034 4.64337 5.53448 4.63516C5.52861 4.62695 5.52551 4.61724 5.52559 4.60732L5.52246 2.1997C5.52254 2.18546 5.51882 2.17143 5.51165 2.15891C5.50448 2.14639 5.4941 2.13579 5.48145 2.1281C5.46881 2.12041 5.45432 2.11586 5.43933 2.11489C5.42434 2.11393 5.40934 2.11656 5.39571 2.12256C5.19436 2.21058 4.99093 2.29266 4.78542 2.36881C4.23459 2.57056 4.06402 3.03339 3.73697 3.4265C3.62326 3.56199 3.41305 3.7405 3.10634 3.96202C2.41363 4.46244 2.00156 5.1379 1.87011 5.9884C1.86828 5.99985 1.86943 6.01155 1.87345 6.02249C1.87748 6.03342 1.88425 6.04326 1.89319 6.05115C1.90213 6.05905 1.91297 6.06475 1.92476 6.06777C1.93656 6.0708 1.94895 6.07105 1.96087 6.06851L4.67901 5.48848C4.73326 5.47661 4.78594 5.48156 4.83706 5.50332L4.97476 5.56117C5.05927 5.59677 5.0843 5.57403 5.04988 5.49293C5.02484 5.43261 4.97737 5.39898 4.90748 5.39206C4.8501 5.38613 4.82767 5.35596 4.84019 5.30157C4.89809 5.06719 5.25644 4.46491 5.57097 4.81945C5.60853 4.86099 5.644 4.8595 5.67738 4.815C5.68781 4.80214 5.69512 4.78781 5.69929 4.77198C5.71494 4.71462 5.75301 4.69385 5.81352 4.70968C5.98253 4.75418 6.11501 4.84319 6.21099 4.9767C6.22615 4.99732 6.23515 5.02153 6.23708 5.04682C6.239 5.07212 6.23378 5.09759 6.22195 5.12059L6.16874 5.22146C6.14162 5.27289 6.1557 5.31146 6.21099 5.33717C6.31844 5.38464 6.35548 5.46079 6.3221 5.56562C6.30958 5.60419 6.32262 5.63336 6.36122 5.65314L8.37205 6.63073C8.41065 6.64952 8.4216 6.6782 8.40491 6.71677L8.36892 6.79391C8.3637 6.80479 8.35535 6.80775 8.34388 6.80281L6.29863 5.81039C6.25272 5.78863 6.21151 5.79457 6.175 5.82819C5.92045 6.0695 5.62522 6.13427 5.2893 6.02252C5.26552 6.01472 5.24556 5.99897 5.23318 5.97821C5.22079 5.95745 5.21682 5.93312 5.22201 5.90978C5.23766 5.83857 5.22253 5.77726 5.17663 5.72583C5.13386 5.67935 5.09734 5.68331 5.06709 5.7377C5.04414 5.77924 5.04414 5.81484 5.06709 5.84451C5.10778 5.89593 5.1036 5.94439 5.05457 5.98988L2.0798 8.72535C1.84611 8.93995 1.88315 9.00275 2.1909 8.91374C2.72608 8.75946 3.50381 8.83512 4.07028 8.80545ZM14.6925 4.12965C14.9741 4.28541 15.104 4.40557 15.115 4.74528C15.116 4.79374 15.1421 4.82242 15.1932 4.83132L16.0774 4.97373C16.1013 4.97777 16.126 4.97353 16.1467 4.96179C16.1674 4.95005 16.1828 4.93162 16.19 4.90994C16.2453 4.75467 16.3528 4.65182 16.5124 4.60139C16.5739 4.5826 16.5745 4.56183 16.5139 4.53908C16.4795 4.52721 16.4576 4.51238 16.4482 4.49458C16.0685 3.79143 15.6846 3.08284 15.2965 2.36881C15.2339 2.25409 15.1843 2.25854 15.1478 2.38216L14.6533 4.04065C14.6419 4.0802 14.6549 4.10987 14.6925 4.12965ZM1.59313 6.43492C0.632313 7.15438 0.816966 8.08895 1.68233 8.78172C1.69451 8.79143 1.71006 8.7965 1.72596 8.79595C1.74187 8.79541 1.75699 8.78927 1.76839 8.77875L4.92469 5.88753C4.9685 5.84698 4.98415 5.79803 4.97163 5.74067C4.96433 5.70803 4.94712 5.68133 4.91999 5.66056C4.90534 5.649 4.88803 5.64073 4.86934 5.63636C4.85065 5.632 4.83106 5.63165 4.81202 5.63534C3.94927 5.81237 3.08704 5.99236 2.22533 6.17531C1.95826 6.23169 1.74753 6.31822 1.59313 6.43492ZM8.96825 12.517L5.76971 12.7811C5.72868 12.7843 5.68894 12.7962 5.65345 12.816C5.61796 12.8358 5.58763 12.8629 5.56471 12.8953L4.8308 13.9263C4.81921 13.9428 4.81369 13.9624 4.8151 13.982C4.81652 14.0016 4.8248 14.0201 4.83862 14.0346C5.64139 14.8861 7.05914 14.9261 7.47069 13.6978C7.52807 13.5287 7.59588 13.3932 7.67412 13.2914C7.70646 13.2479 7.7508 13.2216 7.80714 13.2127C8.28702 13.1425 8.69023 12.9418 9.01676 12.6105C9.08666 12.5403 9.07049 12.5091 8.96825 12.517Z" fill="#FC00C5"/>
<path d="M4.06885 8.80594C4.17369 8.18883 4.87631 7.97373 5.34107 8.39948C5.37654 8.43212 5.38854 8.47168 5.37706 8.51816C5.36454 8.56563 5.34367 8.61112 5.31446 8.65463C5.31108 8.66008 5.30888 8.6661 5.308 8.67234C5.30712 8.67857 5.30757 8.68488 5.30933 8.69086C5.31109 8.69685 5.31413 8.70238 5.31824 8.70712C5.32235 8.71186 5.32746 8.71571 5.33324 8.71842C5.35411 8.72831 5.37602 8.73177 5.39897 8.7288C5.41462 8.72781 5.42453 8.71941 5.4287 8.70359C5.45582 8.57997 5.53615 8.49492 5.66969 8.44844C6.56478 8.14186 7.42284 7.75962 8.24386 7.30174C8.28663 7.278 8.32836 7.28047 8.36905 7.30915C8.41599 7.34377 8.4525 7.38283 8.47859 7.42635C8.51614 7.48766 8.50154 7.502 8.43477 7.46937C8.41599 7.46046 8.39826 7.45453 8.38157 7.45156C8.35653 7.44761 8.33253 7.45107 8.30958 7.46195L7.19854 8.01824C7.15789 8.03869 7.1243 8.06959 7.10182 8.10721C7.07934 8.14484 7.06891 8.1876 7.07179 8.23037L7.10934 8.77182C7.11143 8.81039 7.09265 8.82671 7.05301 8.82078C7.03319 8.81781 7.01806 8.82473 7.00763 8.84155C6.99701 8.85871 6.98784 8.87508 6.98138 8.88838C6.97493 8.90168 6.97152 8.91123 6.97164 8.91572C6.97477 8.93846 6.98207 8.95973 6.99355 8.9795C6.99726 8.98593 7.00233 8.99156 7.00843 8.99604C7.01453 9.00053 7.02155 9.00378 7.02903 9.00559C7.03652 9.00739 7.04431 9.00772 7.05194 9.00655C7.05956 9.00539 7.06685 9.00274 7.07335 8.99879C7.10465 8.98 7.12082 8.95181 7.12186 8.91423C7.12395 8.8638 7.1516 8.84056 7.2048 8.84451C7.30599 8.85341 7.36024 8.90089 7.36755 8.98692C7.37276 9.04824 7.40771 9.08038 7.47239 9.08335C7.66121 9.09225 7.7718 9.20449 7.80414 9.42009C7.81978 9.52689 7.79057 9.60255 7.71651 9.64705C7.68792 9.66353 7.65961 9.69295 7.63513 9.73161C7.59758 9.79095 7.60227 9.84583 7.64922 9.89627C7.68156 9.93187 7.67947 9.965 7.64296 9.99566C6.96851 10.5861 6.00143 9.90814 6.43333 9.1857C6.64772 8.82671 7.15473 8.89198 6.89027 8.23482C6.88717 8.22726 6.8825 8.22036 6.87655 8.21453C6.8706 8.2087 6.86348 8.20406 6.8556 8.20088C6.84773 8.1977 6.83926 8.19605 6.8307 8.19602C6.82214 8.19599 6.81367 8.19758 6.80577 8.2007L5.6024 8.66205C5.54919 8.68183 5.5252 8.71941 5.53041 8.77479C5.55858 9.03785 5.448 9.26631 5.19867 9.46014C5.08078 9.55014 4.97802 9.56497 4.89039 9.50464C4.82258 9.45717 4.7772 9.43393 4.75425 9.43492C4.71461 9.43789 4.68279 9.4636 4.6588 9.51206C4.6538 9.5223 4.64666 9.53147 4.6378 9.539C4.62895 9.54654 4.61857 9.55229 4.60729 9.55589C4.59602 9.5595 4.58409 9.5609 4.57222 9.55999C4.56036 9.55909 4.54882 9.5559 4.5383 9.55063C4.3307 9.4458 4.181 9.29103 4.08919 9.08631C4.08425 9.07514 4.08194 9.06307 4.08244 9.05099C4.08294 9.0389 4.08623 9.0271 4.09208 9.01645C4.09792 9.0058 4.10617 8.99655 4.11623 8.98939C4.12629 8.98223 4.1379 8.97733 4.15022 8.97505C4.17526 8.97011 4.19769 8.96022 4.21751 8.94539C4.26654 8.9088 4.26445 8.87418 4.21125 8.84155C4.17265 8.8188 4.12518 8.80693 4.06885 8.80594Z" fill="#FC00C5"/>
<path d="M8.60772 7.59127L8.53682 7.54245C8.51864 7.52993 8.4932 7.53375 8.47999 7.55098L7.44982 8.89512C7.43661 8.91235 7.44064 8.93647 7.45882 8.949L7.52972 8.99782C7.5479 9.01034 7.57334 9.00652 7.58655 8.98929L8.61672 7.64515C8.62993 7.62792 8.6259 7.6038 8.60772 7.59127Z" fill="#FC00C5"/>
</svg>
